<svg width="73" height="18" viewBox="0 0 73 18" fill="none" xmlns="http://www.w3.org/2000/svg">
<g clip-path="url(#clip0_895_42)">
<path d="M69 0.5C67.0672 0.5 65.5 2.06719 65.5 4C65.5 5.93281 67.0672 7.5 69 7.5C70.9328 7.5 72.5 5.93281 72.5 4C72.5 2.06719 70.9328 0.5 69 0.5ZM69 6.90625C67.3953 6.90625 66.0938 5.60469 66.0938 4C66.0938 2.39531 67.3953 1.09375 69 1.09375C70.6047 1.09375 71.9062 2.39531 71.9062 4C71.9062 5.60469 70.6047 6.90625 69 6.90625ZM69.6836 4.29141C69.9555 4.19141 70.2961 3.90859 70.2961 3.36016C70.2961 2.80391 69.9406 2.33594 69.1695 2.33594H67.9531C67.9188 2.33594 67.8906 2.36406 67.8906 2.39844V5.60156C67.8906 5.63594 67.9188 5.66406 67.9531 5.66406H68.3789C68.4133 5.66406 68.4414 5.63594 68.4414 5.60156V4.38438H69.1344L69.7172 5.62813C69.7273 5.65 69.7492 5.66406 69.7734 5.66406H70.2578C70.2684 5.66415 70.2789 5.66151 70.2882 5.65637C70.2975 5.65124 70.3053 5.6438 70.3109 5.63477C70.3164 5.62574 70.3196 5.61542 70.32 5.60481C70.3204 5.5942 70.3181 5.58367 70.3133 5.57422L69.6836 4.29141ZM69.0781 3.94531H68.4414V2.78906H69.093C69.468 2.78906 69.725 2.98672 69.725 3.37891C69.725 3.74531 69.4922 3.94531 69.0781 3.94531Z" fill="black"/>
</g>
<path d="M1.07175 9.5345C1.07175 8.66576 1.28318 7.89112 1.70604 7.21061C2.14349 6.51561 2.72675 5.9654 3.45583 5.55998C4.18491 5.15457 4.9869 4.95186 5.86179 4.95186C6.73669 4.95186 7.38557 5.09665 7.80843 5.38623C8.24588 5.66134 8.41357 5.99436 8.3115 6.38529C8.26775 6.588 8.18026 6.74727 8.04903 6.86311C7.93237 6.96446 7.79385 7.02962 7.63345 7.05857C7.47306 7.08753 7.29808 7.08029 7.10852 7.03686C6.1753 6.84863 5.33685 6.83415 4.59319 6.99342C3.84953 7.15269 3.25898 7.44951 2.82153 7.88388C2.39867 8.31826 2.18724 8.86846 2.18724 9.5345H1.07175ZM1.09362 16.9623C0.74366 16.9623 0.473901 16.8754 0.284341 16.7017C0.0947802 16.5134 0 16.2383 0 15.8764V6.16811C0 5.82061 0.0947802 5.55274 0.284341 5.36452C0.473901 5.17629 0.74366 5.08217 1.09362 5.08217C1.45816 5.08217 1.72792 5.17629 1.9029 5.36452C2.09246 5.53827 2.18724 5.80613 2.18724 6.16811V15.8764C2.18724 16.2239 2.09246 16.4917 1.9029 16.68C1.72792 16.8682 1.45816 16.9623 1.09362 16.9623Z" fill="black"/>
<path d="M15.1857 17.0492C14.0046 17.0492 12.962 16.7958 12.058 16.289C11.1539 15.7678 10.4394 15.0583 9.9145 14.1606C9.40415 13.2484 9.14897 12.2059 9.14897 11.0331C9.14897 9.84581 9.40415 8.80331 9.9145 7.9056C10.4394 6.99342 11.1539 6.28394 12.058 5.77717C12.962 5.25592 14.0046 4.9953 15.1857 4.9953C16.3523 4.9953 17.3876 5.25592 18.2916 5.77717C19.1957 6.28394 19.9029 6.99342 20.4132 7.9056C20.9382 8.80331 21.2006 9.84581 21.2006 11.0331C21.2006 12.2059 20.9455 13.2484 20.4351 14.1606C19.9248 15.0583 19.2175 15.7678 18.3135 16.289C17.4094 16.7958 16.3668 17.0492 15.1857 17.0492ZM15.1857 15.0945C15.944 15.0945 16.6147 14.9207 17.198 14.5732C17.7813 14.2257 18.2333 13.7479 18.5541 13.1398C18.8895 12.5317 19.0571 11.8294 19.0571 11.0331C19.0571 10.2367 18.8895 9.5345 18.5541 8.92638C18.2333 8.30378 17.7813 7.81873 17.198 7.47123C16.6147 7.12373 15.944 6.94998 15.1857 6.94998C14.4275 6.94998 13.7567 7.12373 13.1735 7.47123C12.5902 7.81873 12.1309 8.30378 11.7955 8.92638C11.4601 9.5345 11.2925 10.2367 11.2925 11.0331C11.2925 11.8294 11.4601 12.5317 11.7955 13.1398C12.1309 13.7479 12.5902 14.2257 13.1735 14.5732C13.7567 14.9207 14.4275 15.0945 15.1857 15.0945Z" fill="black"/>
<path d="M29.9453 17.0492C28.8079 17.0492 27.7799 16.7885 26.8613 16.2673C25.9572 15.7316 25.2355 15.0076 24.6959 14.0954C24.171 13.1832 23.9085 12.1552 23.9085 11.0114C23.9085 9.86753 24.1491 8.84675 24.6303 7.94904C25.1261 7.03686 25.7969 6.32014 26.6426 5.79889C27.4883 5.26316 28.4434 4.9953 29.5079 4.9953C30.3682 4.9953 31.1629 5.17629 31.892 5.53827C32.621 5.88576 33.2335 6.36358 33.7292 6.9717V1.10765C33.7292 0.774633 33.8313 0.506769 34.0354 0.304062C34.2542 0.101354 34.5239 0 34.8447 0C35.1801 0 35.4499 0.101354 35.654 0.304062C35.8581 0.506769 35.9602 0.774633 35.9602 1.10765V11.0114C35.9602 12.1552 35.6904 13.1832 35.1509 14.0954C34.626 15.0076 33.9115 15.7316 33.0074 16.2673C32.1034 16.7885 31.0827 17.0492 29.9453 17.0492ZM29.9453 15.0945C30.689 15.0945 31.3524 14.9207 31.9357 14.5732C32.519 14.2113 32.9783 13.719 33.3137 13.0964C33.649 12.4738 33.8167 11.7788 33.8167 11.0114C33.8167 10.2295 33.649 9.5345 33.3137 8.92638C32.9783 8.31826 32.519 7.84045 31.9357 7.49295C31.3524 7.13097 30.689 6.94998 29.9453 6.94998C29.2162 6.94998 28.5528 7.13097 27.9549 7.49295C27.3717 7.84045 26.9051 8.31826 26.5551 8.92638C26.2197 9.5345 26.052 10.2295 26.052 11.0114C26.052 11.7788 26.2197 12.4738 26.5551 13.0964C26.9051 13.719 27.3717 14.2113 27.9549 14.5732C28.5528 14.9207 29.2162 15.0945 29.9453 15.0945Z" fill="black"/>
<path d="M44.8869 17.0492C43.8224 17.0492 42.8673 16.7885 42.0216 16.2673C41.1759 15.7316 40.5051 15.0149 40.0093 14.1171C39.5281 13.205 39.2875 12.1769 39.2875 11.0331C39.2875 9.88924 39.55 8.86123 40.0749 7.94904C40.6145 7.03686 41.3363 6.32014 42.2403 5.79889C43.1589 5.26316 44.1869 4.9953 45.3243 4.9953C46.4617 4.9953 47.4824 5.26316 48.3864 5.79889C49.2905 6.32014 50.005 7.03686 50.5299 7.94904C51.0694 8.86123 51.3392 9.88924 51.3392 11.0331H50.4862C50.4862 12.1769 50.2383 13.205 49.7425 14.1171C49.2613 15.0149 48.5979 15.7316 47.7521 16.2673C46.9064 16.7885 45.9513 17.0492 44.8869 17.0492ZM45.3243 15.0945C46.068 15.0945 46.7314 14.9207 47.3147 14.5732C47.898 14.2113 48.3573 13.7262 48.6926 13.1181C49.028 12.4955 49.1957 11.8005 49.1957 11.0331C49.1957 10.2512 49.028 9.55622 48.6926 8.9481C48.3573 8.3255 47.898 7.84045 47.3147 7.49295C46.7314 7.13097 46.068 6.94998 45.3243 6.94998C44.5952 6.94998 43.9318 7.13097 43.3339 7.49295C42.7507 7.84045 42.2841 8.3255 41.9341 8.9481C41.5987 9.55622 41.431 10.2512 41.431 11.0331C41.431 11.8005 41.5987 12.4955 41.9341 13.1181C42.2841 13.7262 42.7507 14.2113 43.3339 14.5732C43.9318 14.9207 44.5952 15.0945 45.3243 15.0945ZM50.2237 16.984C49.9029 16.984 49.6332 16.8827 49.4144 16.68C49.2103 16.4628 49.1082 16.1949 49.1082 15.8764V12.5534L49.5238 10.2512L51.3392 11.0331V15.8764C51.3392 16.1949 51.2298 16.4628 51.0111 16.68C50.807 16.8827 50.5445 16.984 50.2237 16.984Z" fill="black"/>
<path d="M55.7313 9.5345C55.7313 8.66576 55.9427 7.89112 56.3656 7.21061C56.803 6.51561 57.3863 5.9654 58.1154 5.55998C58.8444 5.15457 59.6464 4.95186 60.5213 4.95186C61.3962 4.95186 62.0451 5.09665 62.468 5.38623C62.9054 5.66134 63.0731 5.99436 62.971 6.38529C62.9273 6.588 62.8398 6.74727 62.7086 6.86311C62.5919 6.96446 62.4534 7.02962 62.293 7.05857C62.1326 7.08753 61.9576 7.08029 61.7681 7.03686C60.8348 6.84863 59.9964 6.83415 59.2527 6.99342C58.5091 7.15269 57.9185 7.44951 57.4811 7.88388C57.0582 8.31826 56.8468 8.86846 56.8468 9.5345H55.7313ZM55.7532 16.9623C55.4032 16.9623 55.1334 16.8754 54.9439 16.7017C54.7543 16.5134 54.6595 16.2383 54.6595 15.8764V6.16811C54.6595 5.82061 54.7543 5.55274 54.9439 5.36452C55.1334 5.17629 55.4032 5.08217 55.7532 5.08217C56.1177 5.08217 56.3875 5.17629 56.5624 5.36452C56.752 5.53827 56.8468 5.80613 56.8468 6.16811V15.8764C56.8468 16.2239 56.752 16.4917 56.5624 16.68C56.3875 16.8682 56.1177 16.9623 55.7532 16.9623Z" fill="black"/>
<defs>
<clipPath id="clip0_895_42">
<rect width="8" height="8" fill="white" transform="translate(65)"/>
</clipPath>
</defs>
</svg>
