<svg width="140" height="40" viewBox="0 0 140 40" fill="none" xmlns="http://www.w3.org/2000/svg">
<path d="M119.168 15.3567C120.469 15.7432 121.607 16.0814 122.745 16.4195C127.456 17.8554 131.732 19.5371 134.89 21.6554C139.237 24.5027 139.507 27.3361 135.563 29.793C133.545 31.0705 130.808 31.9735 127.669 32.7034C121.48 34.1 114.602 34.738 107.414 35.1048C96.8842 35.6227 86.157 35.4921 75.304 34.8593C63.5385 34.1877 51.8981 32.9991 40.3002 31.2867C31.9076 30.08 23.6231 28.5657 15.8913 26.3932C12.8796 25.5519 9.88209 24.536 7.30932 23.4139C0.640621 20.449 -0.545388 16.5925 4.10611 13.6305C6.38909 12.1636 9.55912 11.0497 13.0458 10.1371C21.379 7.96523 30.8679 6.94126 40.8961 6.45298C54.6851 5.77723 68.6375 6.16902 82.8443 7.53031C92.2603 8.43337 101.657 9.58083 110.663 11.4347C113.366 11.97 115.89 12.6664 118.503 13.2996C119.156 13.4579 119.72 13.6794 120.285 13.9008C121.734 14.5102 121.617 14.9225 119.927 15.2424C119.756 15.2989 119.505 15.3137 119.168 15.3567ZM78.8989 8.96803C78.9017 8.93311 78.9045 8.8982 78.9073 8.86328C78.4112 8.8231 77.8351 8.74131 77.3389 8.70113C65.8413 7.80524 54.4554 7.58612 43.261 8.0854C33.5721 8.49572 24.2571 9.42833 16.1833 11.4806C12.9532 12.3085 9.9627 13.2613 7.77372 14.5952C3.74351 17.0804 4.73797 20.2184 10.5338 22.6558C12.7072 23.5699 15.14 24.3643 17.664 25.0607C24.5002 26.9849 31.8008 28.3141 39.1982 29.4754C49.8837 31.149 60.7 32.2358 71.5417 33.0083C84.2882 33.8999 96.9259 34.0798 109.141 33.3117C114.915 32.9358 120.455 32.3652 125.455 31.2589C128.509 30.5573 131.163 29.6476 132.933 28.35C134.882 26.8913 135.18 25.2636 133.157 23.5184C132.379 22.8578 131.352 22.1772 130.316 21.6014C126.89 19.7073 122.68 18.2418 117.955 16.9805C112.088 15.416 106.034 14.1174 99.7086 13.0781C91.333 11.6618 82.8435 10.6229 74.2665 10.6664C73.8501 10.6678 73.2656 10.6908 72.9405 10.5942C72.3729 10.4076 71.6428 10.1728 71.4944 9.94992C71.3459 9.72703 71.8704 9.41806 72.298 9.27697C72.8083 9.14257 73.5582 9.13301 74.2255 9.11675C75.8165 8.99958 77.3163 8.98045 78.8989 8.96803ZM105.271 12.2282C109.278 13.115 113.205 13.9601 117.212 14.8469C113.573 13.533 109.554 12.7859 105.271 12.2282Z" fill="#3758FF"/>
<path d="M14.261 11.2327L14.55 6.21047C14.6088 5.27399 14.933 4.82424 15.5226 4.86124C16.1296 4.89932 16.4514 5.18067 16.4881 5.70529C16.5087 5.93291 16.4666 7.297 16.362 9.79755C16.2573 12.2981 16.1885 14.6442 16.1554 16.8359C16.1397 19.0286 16.0726 21.0701 15.954 22.9604C15.9214 23.4807 15.5148 23.7163 14.7344 23.6674C14.2142 23.6347 13.9769 23.2542 14.0226 22.5259C13.2399 23.0687 12.3369 23.308 11.3137 23.2438C10.0131 23.1622 8.98565 22.6103 8.23149 21.588C7.49468 20.5668 7.17088 19.3451 7.2601 17.9231C7.34932 16.501 7.7187 15.1923 8.36825 13.9969C9.03622 12.7852 10.0027 11.9492 11.2678 11.4889C12.0515 11.2072 12.7989 11.0887 13.5099 11.1333C13.77 11.1496 14.0204 11.1828 14.261 11.2327ZM14.1675 14.8047C14.07 14.4155 13.9406 14.1201 13.7791 13.9185C13.6188 13.6995 13.4356 13.5661 13.2297 13.5184C13.0422 13.4544 12.8097 13.4137 12.5322 13.3963C12.2547 13.3789 11.91 13.4617 11.4981 13.6448C11.0862 13.8279 10.7268 14.1448 10.4199 14.5957C9.80624 15.4973 9.46674 16.4684 9.40146 17.509C9.33726 18.5322 9.48393 19.3858 9.84146 20.0698C10.2174 20.7376 10.7782 21.0949 11.524 21.1417C12.287 21.1895 12.9087 20.8542 13.3891 20.1357C13.8694 19.4172 14.146 18.477 14.2189 17.315C14.3005 16.0144 14.2834 15.1776 14.1675 14.8047ZM25.436 11.9599C26.1991 12.0078 26.5398 12.6821 26.4582 13.9827C26.4495 14.1215 26.4402 14.2689 26.4304 14.425L26.2642 16.2426C26.2109 16.8138 26.1669 17.3769 26.1321 17.9319L26.1534 23.8354C26.1262 24.2689 25.6704 24.458 24.7859 24.4025C24.7339 24.3992 24.6039 24.391 24.3957 24.378C24.205 24.366 24.0711 24.2793 23.9942 24.1178C23.9346 23.9573 23.9379 23.766 24.0041 23.5438C24.0876 23.3227 24.0861 23.0702 23.9994 22.7862C23.1484 23.5859 22.0638 23.9444 20.7458 23.8617C18.3006 23.7083 17.1965 21.7413 17.4337 17.9607C17.5654 15.8623 18.0551 14.2999 18.903 13.2737C19.7682 12.2485 20.9378 11.7822 22.4119 11.8746C23.1056 11.9182 23.7917 12.0831 24.4701 12.3694C24.7152 12.0714 25.0371 11.9349 25.436 11.9599ZM22.5821 14.1574C21.5936 14.0954 20.8386 14.3353 20.3171 14.8771C19.7956 15.4189 19.487 16.4529 19.3912 17.979C19.2302 20.5457 19.8434 21.8725 21.2308 21.9596C21.595 21.9824 22.0042 21.8427 22.4584 21.5404C22.93 21.2392 23.2655 20.8859 23.4651 20.4806C23.8533 19.5648 24.0823 18.5519 24.1519 17.442C24.2215 16.3321 24.1334 15.517 23.8875 14.9967C23.6589 14.4774 23.2238 14.1977 22.5821 14.1574ZM29.0841 24.411C28.6332 24.3827 28.3802 24.1144 28.325 23.606C28.5448 20.1029 28.5325 16.9682 28.2882 14.202C28.31 13.8552 28.451 13.5506 28.7112 13.2884C28.9887 13.0272 29.2836 12.9064 29.5957 12.926C29.9252 12.9467 30.1566 13.144 30.2898 13.518C30.9848 12.7085 31.8699 12.3375 32.9451 12.4049C34.3152 12.4909 35.3317 13.2162 35.9947 14.581C36.9402 13.3868 38.1239 12.8343 39.546 12.9235C40.9854 13.0138 42.0247 13.6536 42.664 14.8428C43.0876 15.5832 43.3583 16.5403 43.4762 17.7142C43.5941 18.8881 43.5861 20.5416 43.4523 22.6747C43.4 23.5072 43.2725 24.1521 43.0697 24.6094C42.868 25.0494 42.4897 25.252 41.9347 25.2172C41.4838 25.1889 41.2763 24.8886 41.3122 24.3163L41.5943 21.0696C41.8391 17.1676 40.947 15.1529 38.9179 15.0256C38.2763 14.9853 37.8112 15.1825 37.5228 15.6171C37.1943 16.1362 36.9855 16.6889 36.8964 17.2753C36.7618 18.3115 36.6678 19.2545 36.6145 20.1042L36.3778 23.8762C36.3604 24.1537 36.207 24.3791 35.9176 24.5524C35.6281 24.7258 35.336 24.8032 35.0412 24.7847C34.6596 24.7608 34.4326 24.4941 34.3601 23.9846L34.776 18.6048C34.8957 16.6971 34.6494 15.489 34.0371 14.9805C33.7391 14.7355 33.2692 14.5929 32.6276 14.5526C32.0033 14.5134 31.5203 14.7182 31.1788 15.1668C30.8546 15.6166 30.6599 16.3617 30.5946 17.4022L30.4471 22.2505C30.3535 23.742 29.8992 24.4621 29.0841 24.411ZM48.0323 9.06849C48.3445 9.08807 48.63 9.25398 48.889 9.5662C49.148 9.87843 49.2671 10.1993 49.2465 10.5288C49.2269 10.841 49.0507 11.152 48.7178 11.4619C48.4023 11.7729 48.0799 11.9181 47.7503 11.8974C47.4208 11.8767 47.1261 11.719 46.866 11.4241C46.6233 11.1303 46.5155 10.7666 46.5427 10.3331C46.5949 9.50062 47.0741 9.07801 47.9803 9.06522C47.9976 9.06631 48.015 9.0674 48.0323 9.06849ZM48.2697 22.768L48.1814 24.5906C48.1608 24.9201 48.0133 25.1894 47.739 25.3986C47.4658 25.5903 47.1818 25.677 46.887 25.6585C46.4534 25.6313 46.2416 25.4004 46.2514 24.9657C46.3731 19.4194 46.4524 16.3514 46.4894 15.7618C46.5264 15.1722 46.5975 14.4541 46.7029 13.6076C46.7572 13.2976 46.9664 13.154 47.3306 13.1769C48.2497 13.2345 48.7466 13.64 48.8212 14.3934C48.8493 14.7782 48.8563 15.0833 48.8421 15.3087L48.6352 16.941L48.2697 22.768ZM59.1213 14.0733C59.8844 14.1212 60.2251 14.7955 60.1435 16.0961C60.1348 16.2349 60.1255 16.3823 60.1157 16.5384L59.9495 18.356C59.8962 18.9272 59.8522 19.4903 59.8174 20.0453L59.8387 25.9488C59.8115 26.3823 59.3557 26.5714 58.4712 26.5159C58.4192 26.5126 58.2892 26.5044 58.081 26.4914C57.8903 26.4794 57.7564 26.3927 57.6795 26.2312C57.6199 26.0707 57.6232 25.8794 57.6894 25.6572C57.7729 25.4361 57.7714 25.1836 57.6847 24.8996C56.8337 25.6993 55.7491 26.0578 54.4311 25.9751C51.9859 25.8217 50.8818 23.8547 51.119 20.0741C51.2507 17.9757 51.7404 16.4133 52.5883 15.3871C53.4535 14.3619 54.6231 13.8956 56.0972 13.988C56.7909 14.0316 57.477 14.1965 58.1554 14.4828C58.4005 14.1848 58.7224 14.0483 59.1213 14.0733ZM56.2674 16.2708C55.2789 16.2088 54.5239 16.4487 54.0024 16.9905C53.4809 17.5323 53.1723 18.5663 53.0765 20.0924C52.9155 22.6591 53.5287 23.9859 54.9161 24.073C55.2803 24.0958 55.6895 23.9561 56.1437 23.6538C56.6153 23.3526 56.9508 22.9993 57.1504 22.594C57.5386 21.6782 57.7676 20.6653 57.8372 19.5554C57.9068 18.4455 57.8187 17.6304 57.5728 17.11C57.3442 16.5908 56.9091 16.311 56.2674 16.2708ZM62.3274 25.6609L62.7039 15.0815C62.7245 14.752 62.8541 14.4903 63.0926 14.2964C63.3311 14.1024 63.5631 14.0125 63.7886 14.0266C64.3435 14.0614 64.6496 14.3157 64.707 14.7894C64.747 15.262 64.7512 15.7497 64.7196 16.2526C65.7334 15.0801 66.9426 14.5379 68.3473 14.626C70.4978 14.7609 71.419 17.2823 71.1111 22.1902C71.0828 22.6411 71.0398 23.3261 70.9822 24.2452C70.9256 25.147 70.8322 25.8028 70.7021 26.2125C70.548 26.7251 70.1588 26.9619 69.5345 26.9227C69.1183 26.8966 68.9276 26.6061 68.9624 26.0511L69.0798 24.596C69.206 22.5843 69.2226 21.2099 69.1296 20.4728C69.055 19.7195 68.9706 19.1222 68.8764 18.6811C68.6403 17.7261 68.1928 17.2279 67.5338 17.1866C66.6667 17.1322 66.0401 17.4062 65.6541 18.0088C65.2301 18.6612 64.9546 19.4448 64.8276 20.3596C64.605 21.9648 64.4371 23.6692 64.324 25.4728C64.3022 25.8197 64.1547 26.089 63.8816 26.2808C63.6084 26.4725 63.2897 26.557 62.9255 26.5342C62.4919 26.507 62.2926 26.2159 62.3274 25.6609ZM77.1619 27.3751C76.5723 27.3381 76.0385 27.1044 75.5606 26.674C75.5606 26.674 75.4539 26.5715 75.2404 26.3666L74.7508 34.1706C74.625 34.511 74.4249 34.7857 74.1506 34.9948C73.8753 35.2213 73.5902 35.3253 73.2954 35.3068C72.8445 35.2785 72.6381 34.9609 72.6761 34.3539L73.8137 16.2225C73.946 15.7782 74.0876 15.465 74.2383 15.2829C74.4063 15.1019 74.6464 15.0212 74.9586 15.0408C75.2881 15.0615 75.4913 15.1526 75.5682 15.3141C75.6636 15.4594 75.7599 15.8659 75.8573 16.5336C75.9485 16.1911 76.2461 15.8877 76.7501 15.6233C77.2542 15.3589 77.9138 15.2523 78.7289 15.3035C80.4978 15.4145 81.7149 16.135 82.3801 17.4651C83.0453 18.7952 83.3229 20.3361 83.213 22.0876C83.1042 23.8219 82.5061 25.1685 81.4187 26.1275C80.3498 27.0702 78.9308 27.4861 77.1619 27.3751ZM75.6745 19.4471L75.371 24.2856C75.4718 24.3441 75.5877 24.4384 75.7188 24.5685C76.1935 25.051 76.7256 25.3107 77.3152 25.3477C79.7085 25.4979 80.9823 24.3416 81.1368 21.879C81.2685 19.7806 80.8141 18.4202 79.7737 17.7978C79.3381 17.5267 78.7907 17.3705 78.1317 17.3292C77.4846 17.3756 76.9204 17.6275 76.439 18.0848C75.9587 18.5247 75.7039 18.9788 75.6745 19.4471ZM92.1969 16.1485C92.96 16.1963 93.3007 16.8706 93.2191 18.1713C93.2104 18.31 93.2011 18.4574 93.1914 18.6135L93.0251 20.4312C92.9718 21.0024 92.9278 21.5655 92.893 22.1204L92.9143 28.0239C92.8871 28.4575 92.4313 28.6465 91.5469 28.591C91.4948 28.5877 91.3648 28.5796 91.1567 28.5665C90.9659 28.5546 90.832 28.4678 90.7551 28.3063C90.6956 28.1459 90.6988 27.9546 90.765 27.7324C90.8485 27.5113 90.847 27.2587 90.7603 26.9747C89.9093 27.7744 88.8247 28.133 87.5067 28.0503C85.0615 27.8968 83.9574 25.9298 84.1946 22.1492C84.3263 20.0508 84.816 18.4885 85.6639 17.4622C86.5291 16.437 87.6987 15.9707 89.1728 16.0632C89.8665 16.1067 90.5526 16.2716 91.2311 16.5579C91.4761 16.2599 91.798 16.1234 92.1969 16.1485ZM89.343 18.3459C88.3545 18.2839 87.5995 18.5238 87.078 19.0657C86.5565 19.6075 86.2479 20.6415 86.1522 22.1676C85.9911 24.7342 86.6043 26.0611 87.9917 26.1481C88.3559 26.171 88.7651 26.0312 89.2193 25.7289C89.6909 25.4277 90.0264 25.0745 90.226 24.6691C90.6142 23.7533 90.8432 22.7405 90.9128 21.6306C90.9824 20.5206 90.8943 19.7055 90.6484 19.1852C90.4198 18.6659 89.9847 18.3862 89.343 18.3459ZM95.403 27.7361L95.7795 17.1567C95.8001 16.8272 95.9297 16.5655 96.1682 16.3715C96.4067 16.1775 96.6387 16.0876 96.8642 16.1018C97.4191 16.1366 97.7253 16.3908 97.7826 16.8645C97.8226 17.3371 97.8268 17.8249 97.7952 18.3278C98.809 17.1552 100.018 16.613 101.423 16.7012C103.573 16.8361 104.495 19.3575 104.187 24.2653C104.158 24.7162 104.115 25.4013 104.058 26.3204C104.001 27.2222 103.908 27.8779 103.778 28.2876C103.624 28.8003 103.234 29.037 102.61 28.9978C102.194 28.9717 102.003 28.6812 102.038 28.1262L102.155 26.6711C102.282 24.6594 102.298 23.285 102.205 22.548C102.131 21.7946 102.046 21.1974 101.952 20.7562C101.716 19.8012 101.268 19.3031 100.609 19.2617C99.7423 19.2073 99.1157 19.4814 98.7297 20.0839C98.3057 20.7364 98.0302 21.52 97.9032 22.4347C97.6806 24.04 97.5127 25.7444 97.3996 27.548C97.3778 27.8948 97.2304 28.1641 96.9572 28.3559C96.684 28.5477 96.3653 28.6322 96.0011 28.6093C95.5675 28.5821 95.3682 28.291 95.403 27.7361ZM108.117 26.2094C108.498 26.2334 108.819 26.3928 109.079 26.6877C109.339 26.9825 109.48 27.3744 109.501 27.8633C109.477 28.2448 109.316 28.5916 109.018 28.9037C108.721 29.1984 108.382 29.3338 108 29.3099C107.636 29.2871 107.313 29.171 107.03 28.9617C106.748 28.7351 106.62 28.4137 106.646 27.9975C106.672 27.5813 106.829 27.1732 107.115 26.7734C107.418 26.3745 107.752 26.1866 108.117 26.2094ZM116.191 17.7583C117.11 17.8159 117.969 18.1397 118.768 18.7295C119.566 19.3194 119.941 20.0132 119.891 20.8109C119.842 21.5913 119.456 22.3331 118.732 23.0364C118.01 23.7224 117.081 24.108 115.944 24.1934C115.454 24.2323 114.723 24.2213 113.752 24.1603C113.85 25.6464 114.162 26.641 114.688 27.144C114.849 27.3457 115.077 27.4557 115.372 27.4742C116.448 27.5417 117.371 27.2601 118.141 26.6294C118.913 25.9814 119.455 25.6672 119.767 25.6868C119.906 25.6955 120.106 25.8387 120.367 26.1162C120.628 26.3937 120.752 26.6452 120.738 26.8707C120.709 27.3216 120.122 27.9376 118.977 28.7189C118.466 29.0873 117.855 29.3885 117.144 29.6224C116.451 29.8401 115.81 29.9305 115.221 29.8935C113.712 29.7988 112.663 28.758 112.074 26.7711C111.698 25.5462 111.555 24.214 111.645 22.7746C111.736 21.3352 112.152 20.1164 112.893 19.1183C113.635 18.1202 114.734 17.6669 116.191 17.7583ZM116.208 19.5614C115.549 19.52 114.962 19.8575 114.447 20.5739C114.257 20.8231 114.056 21.4024 113.842 22.3118C116.27 22.4641 117.521 21.9419 117.596 20.7453C117.642 20.0169 117.179 19.6223 116.208 19.5614ZM123.051 21.4009C123.115 20.3777 123.531 19.5855 124.297 19.0242C125.063 18.4629 125.924 18.2122 126.877 18.2721C127.849 18.333 128.766 18.5646 129.628 18.967C130.491 19.3693 130.904 19.8566 130.868 20.4289C130.85 20.7237 130.723 20.9508 130.486 21.11C130.25 21.2693 130.045 21.3435 129.872 21.3326C129.715 21.3229 129.585 21.3147 129.481 21.3082C129.396 21.2854 129.059 21.0989 128.472 20.7486C127.902 20.3995 127.365 20.2091 126.862 20.1776C126.359 20.146 125.918 20.2489 125.537 20.4862C125.175 20.7072 124.979 21.0605 124.948 21.5461C124.918 22.0317 125.093 22.4257 125.475 22.7282C125.874 23.0318 126.578 23.3197 127.588 23.592C128.6 23.847 129.363 24.1734 129.877 24.5714C130.409 24.9704 130.644 25.6641 130.582 26.6526C130.492 28.092 130.046 29.0913 129.245 29.6504C128.463 30.1932 127.534 30.4309 126.458 30.3635C125.383 30.296 124.473 30.091 123.729 29.7483C123.001 29.4067 122.656 28.941 122.693 28.3514C122.736 27.6751 123.095 27.3581 123.771 27.4005C123.945 27.4114 124.319 27.5567 124.893 27.8365C125.468 28.1163 126.041 28.2742 126.613 28.3101C127.203 28.3471 127.657 28.1927 127.974 27.847C128.31 27.4851 128.494 27.0613 128.524 26.5757C128.555 26.0901 128.377 25.7308 127.991 25.4977C127.606 25.2472 127.011 25.027 126.204 24.8371C125.398 24.6472 124.809 24.4623 124.437 24.2823C123.423 23.8008 122.961 22.8403 123.051 21.4009Z" fill="black"/>
</svg>
