<svg width="673" height="659" viewBox="0 0 673 659" fill="none" xmlns="http://www.w3.org/2000/svg">
<path d="M466.438 74.2487L466.606 74.3329L466.776 74.4117L587.415 130.14C594.542 133.432 599.696 139.895 601.32 147.575L628.806 277.59L628.845 277.774L628.889 277.957L660.537 407.022C662.406 414.646 660.567 422.706 655.574 428.764L571.062 531.316L570.942 531.461L570.828 531.61L489.652 636.824C484.857 643.039 477.409 646.626 469.559 646.5L336.688 644.366L336.5 644.363L336.312 644.366L203.441 646.5C195.591 646.626 188.143 643.039 183.348 636.824L102.173 531.61L102.058 531.461L101.938 531.316L17.4257 428.764C12.4332 422.706 10.5937 414.646 12.4632 407.022L44.1106 277.957L44.1553 277.774L44.1942 277.59L71.6803 147.575C73.304 139.895 78.4582 133.432 85.5847 130.14L206.224 74.4117L206.394 74.3329L206.562 74.2487L325.35 14.6751C332.367 11.1559 340.633 11.1559 347.65 14.6751L466.438 74.2487Z" stroke="url(#paint0_linear_3474_11)" stroke-width="23.3893"/>
<defs>
<linearGradient id="paint0_linear_3474_11" x1="336.5" y1="-4" x2="336.5" y2="1557" gradientUnits="userSpaceOnUse">
<stop stop-color="#9BFFB1"/>
<stop offset="1" stop-color="#F7FF00"/>
</linearGradient>
</defs>
</svg>
