<svg width="291" height="64" viewBox="0 0 291 64" fill="none" xmlns="http://www.w3.org/2000/svg">
<path d="M0.58252 0.354004H290.583V31.854L272.716 47.7115L254.333 63.354H218.083H145.583H0.58252V0.354004Z" fill="#98F9AD"/>
<path d="M80.2479 23.5936L91.7342 23.4235C92.2825 23.5936 92.5566 23.8678 92.5566 24.2459C92.5566 25.1913 92.169 25.664 91.3938 25.664C89.9758 25.664 88.4726 25.7018 86.8844 25.7774C86.7899 27.4035 86.7426 28.6324 86.7426 29.4644C86.7426 30.2774 86.7426 30.7973 86.7426 31.0242L86.856 40.979C86.856 41.5651 86.7048 41.9055 86.4023 42C86.1754 42.0756 85.8918 42.1134 85.5514 42.1134C85.0031 42.1134 84.7006 41.8015 84.6439 41.1775C84.5304 39.7217 84.4737 37.0084 84.4737 33.0379C84.4737 29.0484 84.5304 26.6472 84.6439 25.8341C84.2468 25.8531 83.6607 25.8625 82.8855 25.8625C82.1103 25.8625 81.146 25.8531 79.9926 25.8341C79.6901 25.8341 79.4538 25.7396 79.2836 25.5505C79.1134 25.3615 79.0284 25.1346 79.0284 24.8699C79.0284 24.5863 79.1418 24.3121 79.3687 24.0474C79.6145 23.7827 79.9076 23.6314 80.2479 23.5936ZM96.379 32.811L96.6058 39.5042C96.6058 40.3361 96.568 40.8183 96.4924 40.9506C96.4546 41.291 96.3411 41.5557 96.1521 41.7447C95.9819 41.9338 95.6416 42.0284 95.1311 42.0284C94.8853 42.0284 94.6867 41.8771 94.5355 41.5746C94.3842 41.2532 94.2991 40.8939 94.2802 40.4969C94.1479 37.1692 93.9683 34.0494 93.7414 31.1377C93.5334 28.207 93.4294 25.4844 93.4294 22.9697C93.4294 22.5726 93.5617 22.2606 93.8265 22.0338C94.0912 21.8069 94.4031 21.6934 94.7624 21.6934C95.2918 21.6934 95.6038 22.1472 95.6983 23.0548C95.8117 23.9623 95.8779 25.0968 95.8968 26.4581C95.9346 27.8194 95.9724 28.8121 96.0103 29.436C96.9556 28.9444 97.901 28.6986 98.8464 28.6986C101.04 28.6986 102.429 29.6629 103.015 31.5915C103.356 32.6881 103.526 34.0967 103.526 35.8173C103.526 36.3845 103.469 37.2826 103.356 38.5116C103.261 39.7217 103.205 40.5063 103.186 40.8656C103.167 41.2248 103.006 41.5084 102.703 41.7164C102.42 41.9055 102.108 42 101.768 42C101.238 42 100.973 41.7164 100.973 41.1492L101.172 36.2143C101.172 35.7984 101.153 35.1082 101.115 34.144C101.077 33.1797 100.879 32.4139 100.52 31.8467C100.179 31.2795 99.5743 30.9959 98.7046 30.9959C97.1542 30.9959 96.379 31.6009 96.379 32.811ZM109.338 28.8688C110.34 28.8688 111.295 29.1619 112.202 29.748C113.11 30.3341 113.564 31.0621 113.564 31.9318C113.564 32.7826 113.195 33.6146 112.458 34.4276C111.72 35.2217 110.737 35.7038 109.508 35.874C108.979 35.9496 108.184 35.9874 107.126 35.9874C107.334 37.5946 107.74 38.6534 108.345 39.1639C108.534 39.3719 108.789 39.4759 109.111 39.4759C110.283 39.4759 111.266 39.1072 112.06 38.3698C112.855 37.6135 113.422 37.2353 113.762 37.2353C113.913 37.2353 114.14 37.3771 114.443 37.6607C114.745 37.9444 114.897 38.2091 114.897 38.4549C114.897 38.9465 114.301 39.6555 113.11 40.5819C112.58 41.0168 111.938 41.3855 111.181 41.688C110.444 41.9716 109.754 42.1134 109.111 42.1134C107.466 42.1134 106.256 41.0546 105.481 38.937C104.989 37.6324 104.743 36.1954 104.743 34.6261C104.743 33.0568 105.112 31.7049 105.849 30.5705C106.587 29.436 107.75 28.8688 109.338 28.8688ZM109.48 30.8257C108.761 30.8257 108.147 31.2322 107.636 32.0452C107.447 32.3288 107.267 32.9717 107.097 33.9738C109.744 33.9738 111.068 33.3215 111.068 32.0169C111.068 31.2228 110.538 30.8257 109.48 30.8257ZM127.628 41.9433L123.969 41.8582C123.761 41.0641 123.639 37.4906 123.601 31.1377V29.124C123.601 27.5169 123.752 26.2974 124.055 25.4655C124.357 24.6146 124.99 23.934 125.955 23.4235C126.446 23.1777 127.127 23.0548 127.997 23.0548C128.885 23.0548 129.566 23.1115 130.039 23.2249C131.306 23.4896 132.166 23.9812 132.62 24.6997C133.092 25.4182 133.329 26.3825 133.329 27.5925C133.329 29.2753 132.884 30.5137 131.996 31.3078C132.449 31.3646 132.903 31.5915 133.357 31.9885C133.811 32.3856 134.179 32.7921 134.463 33.208C134.955 33.9643 135.2 34.9948 135.2 36.2994C135.2 38.3414 134.577 39.7973 133.329 40.667C132.1 41.5179 130.199 41.9433 127.628 41.9433ZM125.87 28.1314L125.926 31.3646C125.964 31.3646 126.286 31.3268 126.891 31.2511C127.496 31.1566 128.006 31.0621 128.422 30.9675C130.332 30.5137 131.287 29.4266 131.287 27.706C131.287 26.8551 131.031 26.2312 130.521 25.8341C130.029 25.4371 129.377 25.2386 128.564 25.2386C127.543 25.2386 126.853 25.4182 126.494 25.7774C126.342 25.9287 126.219 26.061 126.125 26.1745C126.03 26.269 125.964 26.4297 125.926 26.6566C125.889 26.8835 125.86 27.0442 125.841 27.1388C125.841 27.2333 125.841 27.4129 125.841 27.6776C125.86 27.9423 125.87 28.0936 125.87 28.1314ZM132.251 34.1723C132.062 33.9643 131.769 33.7753 131.372 33.6051C130.975 33.4349 130.398 33.3499 129.642 33.3499C128.904 33.3499 127.638 33.4727 125.841 33.7185C125.841 36.6681 125.889 38.6628 125.983 39.7027C128.195 39.7027 129.746 39.5609 130.634 39.2773C131.523 38.9748 132.119 38.6156 132.421 38.1996C132.743 37.7647 132.903 37.311 132.903 36.8383C132.903 36.3467 132.894 36.0063 132.875 35.8173C132.875 35.6093 132.818 35.3351 132.705 34.9948C132.61 34.6356 132.459 34.3614 132.251 34.1723ZM141.123 37.8593L141.152 40.7805C141.152 41.1208 140.991 41.4328 140.67 41.7164C140.367 42 140.064 42.1418 139.762 42.1418C139.327 42.1418 139.053 41.8015 138.94 41.1208C138.921 40.9695 138.845 39.5893 138.713 36.9801C138.58 34.3519 138.325 32.291 137.947 30.7973C137.777 30.0789 137.692 29.6534 137.692 29.5211C137.692 28.8972 138.07 28.5852 138.826 28.5852C139.147 28.5852 139.403 28.7081 139.592 28.9539C139.781 29.1997 139.894 29.4549 139.932 29.7196C139.989 29.9654 140.036 30.3058 140.074 30.7406C140.112 31.1755 140.14 31.4497 140.159 31.5631C140.556 30.6177 141.152 29.9087 141.946 29.436C142.74 28.9633 143.61 28.727 144.555 28.727C146.105 28.727 146.881 29.124 146.881 29.9182C146.881 30.3152 146.739 30.6366 146.455 30.8824C146.191 31.1093 145.879 31.2228 145.519 31.2228C143.912 31.2228 142.778 31.7333 142.116 32.7543C141.454 33.7753 141.123 35.4769 141.123 37.8593ZM156.29 28.7553C157.122 28.7553 157.538 29.4644 157.538 30.8824C157.538 31.0337 157.538 31.1944 157.538 31.3646L157.481 33.3499C157.462 33.9738 157.453 34.5883 157.453 35.1933L157.878 41.6029C157.878 42.0756 157.396 42.312 156.432 42.312C156.375 42.312 156.233 42.312 156.006 42.312C155.798 42.312 155.647 42.2269 155.552 42.0567C155.477 41.8866 155.467 41.6786 155.524 41.4328C155.6 41.187 155.581 40.9128 155.467 40.6103C154.598 41.5368 153.444 42 152.007 42C149.341 42 148.008 39.9391 148.008 35.8173C148.008 33.5295 148.434 31.7994 149.285 30.6272C150.154 29.4549 151.393 28.8688 153 28.8688C153.756 28.8688 154.513 29.0011 155.269 29.2658C155.515 28.9255 155.855 28.7553 156.29 28.7553ZM153.34 31.3362C152.263 31.3362 151.459 31.6482 150.93 32.2721C150.4 32.8961 150.136 34.04 150.136 35.7038C150.136 38.5021 150.892 39.9013 152.404 39.9013C152.801 39.9013 153.236 39.7217 153.709 39.3624C154.201 39.0032 154.541 38.5967 154.73 38.1429C155.089 37.1219 155.269 36.0063 155.269 34.7963C155.269 33.5862 155.118 32.707 154.815 32.1587C154.531 31.6104 154.04 31.3362 153.34 31.3362ZM161.355 24.0758C161.696 24.0758 162.017 24.2365 162.32 24.5579C162.622 24.8793 162.773 25.2197 162.773 25.5789C162.773 25.9192 162.603 26.269 162.263 26.6283C161.941 26.9875 161.601 27.1671 161.242 27.1671C160.883 27.1671 160.552 27.0159 160.249 26.7133C159.966 26.4108 159.824 26.0232 159.824 25.5505C159.824 24.643 160.315 24.1514 161.298 24.0758C161.317 24.0758 161.336 24.0758 161.355 24.0758ZM162.546 38.937L162.575 40.9223C162.575 41.2815 162.433 41.584 162.149 41.8298C161.866 42.0567 161.563 42.1702 161.242 42.1702C160.769 42.1702 160.523 41.9338 160.504 41.4611C160.259 35.4297 160.136 32.0925 160.136 31.4497C160.136 30.8068 160.164 30.0221 160.221 29.0957C160.259 28.7553 160.476 28.5852 160.873 28.5852C161.875 28.5852 162.442 28.9917 162.575 29.8047C162.631 30.2207 162.66 30.5516 162.66 30.7973L162.546 32.5841V38.937ZM166.904 41.1208L166.592 29.6062C166.592 29.2469 166.715 28.9539 166.96 28.727C167.206 28.5001 167.452 28.3867 167.698 28.3867C168.303 28.3867 168.653 28.6419 168.747 29.1524C168.823 29.6629 168.861 30.1923 168.861 30.7406C169.882 29.3982 171.158 28.727 172.689 28.727C175.034 28.727 176.206 31.4024 176.206 36.7532C176.206 37.2448 176.206 37.9916 176.206 38.9937C176.206 39.9769 176.149 40.6954 176.036 41.1492C175.904 41.7164 175.497 42 174.816 42C174.363 42 174.136 41.6975 174.136 41.0924L174.164 39.5042C174.164 37.311 174.088 35.8173 173.937 35.0232C173.805 34.2101 173.672 33.5673 173.54 33.0946C173.219 32.0736 172.699 31.5631 171.98 31.5631C171.035 31.5631 170.373 31.9034 169.995 32.5841C169.579 33.3215 169.333 34.1912 169.258 35.1933C169.125 36.9517 169.059 38.8141 169.059 40.7805C169.059 41.1586 168.917 41.4611 168.634 41.688C168.35 41.9149 168.01 42.0284 167.613 42.0284C167.14 42.0284 166.904 41.7258 166.904 41.1208ZM184.108 43.9853H212.469V15.6241H184.108V43.9853Z" fill="black"/>
<path d="M259.5 31L290.5 32L254 64L259.5 31Z" fill="#55A265"/>
</svg>
