<svg width="341" height="341" viewBox="0 0 341 341" fill="none" xmlns="http://www.w3.org/2000/svg">
<g filter="url(#filter0_f_157_70)">
<path d="M168.753 123.628C169.646 122.855 170.97 122.855 171.863 123.628L175.117 126.448C175.827 127.063 176.834 127.202 177.684 126.801L181.579 124.964C182.646 124.46 183.922 124.818 184.573 125.803L186.946 129.396C187.464 130.18 188.396 130.585 189.323 130.428L193.568 129.71C194.732 129.513 195.864 130.201 196.225 131.325L197.54 135.425C197.828 136.32 198.616 136.962 199.551 137.061L203.832 137.515C205.006 137.639 205.91 138.607 205.954 139.787L206.115 144.09C206.15 145.029 206.736 145.859 207.61 146.207L211.61 147.8C212.707 148.236 213.316 149.412 213.041 150.56L212.035 154.747C211.815 155.661 212.155 156.618 212.902 157.189L216.325 159.801C217.263 160.518 217.533 161.815 216.958 162.845L214.859 166.605C214.401 167.426 214.471 168.44 215.036 169.191L217.627 172.63C218.337 173.573 218.247 174.894 217.415 175.732L214.38 178.786C213.717 179.453 213.511 180.448 213.853 181.324L215.419 185.334C215.849 186.434 215.405 187.682 214.378 188.264L210.632 190.386C209.814 190.85 209.346 191.752 209.439 192.687L209.866 196.972C209.983 198.147 209.219 199.229 208.073 199.512L203.893 200.545C202.98 200.77 202.287 201.513 202.124 202.439L201.379 206.68C201.175 207.842 200.147 208.678 198.967 208.642L194.663 208.509C193.724 208.479 192.856 209.007 192.449 209.855L190.587 213.738C190.077 214.802 188.862 215.33 187.736 214.976L183.627 213.687C182.731 213.405 181.752 213.679 181.132 214.386L178.292 217.622C177.513 218.509 176.201 218.69 175.212 218.046L171.604 215.696C170.816 215.183 169.8 215.183 169.012 215.696L165.404 218.046C164.415 218.69 163.103 218.509 162.324 217.622L159.484 214.386C158.864 213.679 157.885 213.405 156.989 213.687L152.88 214.976C151.754 215.33 150.539 214.802 150.029 213.738L148.167 209.855C147.76 209.007 146.892 208.479 145.953 208.509L141.649 208.642C140.469 208.678 139.441 207.842 139.237 206.68L138.492 202.439C138.329 201.513 137.636 200.77 136.723 200.545L132.543 199.512C131.397 199.229 130.633 198.147 130.75 196.972L131.177 192.687C131.27 191.752 130.802 190.85 129.984 190.386L126.238 188.264C125.211 187.682 124.767 186.434 125.197 185.334L126.763 181.324C127.105 180.448 126.899 179.453 126.236 178.786L123.201 175.732C122.369 174.894 122.279 173.573 122.989 172.63L125.58 169.191C126.145 168.44 126.215 167.426 125.757 166.605L123.658 162.845C123.083 161.815 123.353 160.518 124.291 159.801L127.714 157.189C128.461 156.618 128.801 155.661 128.581 154.747L127.575 150.56C127.3 149.412 127.909 148.236 129.006 147.8L133.006 146.207C133.88 145.859 134.466 145.029 134.501 144.09L134.662 139.787C134.706 138.607 135.61 137.639 136.784 137.515L141.065 137.061C142 136.962 142.788 136.32 143.076 135.425L144.391 131.325C144.752 130.201 145.884 129.513 147.048 129.71L151.293 130.428C152.22 130.585 153.152 130.18 153.67 129.396L156.043 125.803C156.694 124.818 157.97 124.46 159.037 124.964L162.932 126.801C163.782 127.202 164.789 127.063 165.499 126.448L168.753 123.628Z" fill="#34D399" fill-opacity="0.41"/>
</g>
<path d="M168.753 123.628C169.646 122.855 170.97 122.855 171.863 123.628L175.117 126.448C175.827 127.063 176.834 127.202 177.684 126.801L181.579 124.964C182.646 124.46 183.922 124.818 184.573 125.803L186.946 129.396C187.464 130.18 188.396 130.585 189.323 130.428L193.568 129.71C194.732 129.513 195.864 130.201 196.225 131.325L197.54 135.425C197.828 136.32 198.616 136.962 199.551 137.061L203.832 137.515C205.006 137.639 205.91 138.607 205.954 139.787L206.115 144.09C206.15 145.029 206.736 145.859 207.61 146.207L211.61 147.8C212.707 148.236 213.316 149.412 213.041 150.56L212.035 154.747C211.815 155.661 212.155 156.618 212.902 157.189L216.325 159.801C217.263 160.518 217.533 161.815 216.958 162.845L214.859 166.605C214.401 167.426 214.471 168.44 215.036 169.191L217.627 172.63C218.337 173.573 218.247 174.894 217.415 175.732L214.38 178.786C213.717 179.453 213.511 180.448 213.853 181.324L215.419 185.334C215.849 186.434 215.405 187.682 214.378 188.264L210.632 190.386C209.814 190.85 209.346 191.752 209.439 192.687L209.866 196.972C209.983 198.147 209.219 199.229 208.073 199.512L203.893 200.545C202.98 200.77 202.287 201.513 202.124 202.439L201.379 206.68C201.175 207.842 200.147 208.678 198.967 208.642L194.663 208.509C193.724 208.479 192.856 209.007 192.449 209.855L190.587 213.738C190.077 214.802 188.862 215.33 187.736 214.976L183.627 213.687C182.731 213.405 181.752 213.679 181.132 214.386L178.292 217.622C177.513 218.509 176.201 218.69 175.212 218.046L171.604 215.696C170.816 215.183 169.8 215.183 169.012 215.696L165.404 218.046C164.415 218.69 163.103 218.509 162.324 217.622L159.484 214.386C158.864 213.679 157.885 213.405 156.989 213.687L152.88 214.976C151.754 215.33 150.539 214.802 150.029 213.738L148.167 209.855C147.76 209.007 146.892 208.479 145.953 208.509L141.649 208.642C140.469 208.678 139.441 207.842 139.237 206.68L138.492 202.439C138.329 201.513 137.636 200.77 136.723 200.545L132.543 199.512C131.397 199.229 130.633 198.147 130.75 196.972L131.177 192.687C131.27 191.752 130.802 190.85 129.984 190.386L126.238 188.264C125.211 187.682 124.767 186.434 125.197 185.334L126.763 181.324C127.105 180.448 126.899 179.453 126.236 178.786L123.201 175.732C122.369 174.894 122.279 173.573 122.989 172.63L125.58 169.191C126.145 168.44 126.215 167.426 125.757 166.605L123.658 162.845C123.083 161.815 123.353 160.518 124.291 159.801L127.714 157.189C128.461 156.618 128.801 155.661 128.581 154.747L127.575 150.56C127.3 149.412 127.909 148.236 129.006 147.8L133.006 146.207C133.88 145.859 134.466 145.029 134.501 144.09L134.662 139.787C134.706 138.607 135.61 137.639 136.784 137.515L141.065 137.061C142 136.962 142.788 136.32 143.076 135.425L144.391 131.325C144.752 130.201 145.884 129.513 147.048 129.71L151.293 130.428C152.22 130.585 153.152 130.18 153.67 129.396L156.043 125.803C156.694 124.818 157.97 124.46 159.037 124.964L162.932 126.801C163.782 127.202 164.789 127.063 165.499 126.448L168.753 123.628Z" fill="#389868"/>
<path d="M168.753 123.628C169.646 122.855 170.97 122.855 171.863 123.628L175.117 126.448C175.827 127.063 176.834 127.202 177.684 126.801L181.579 124.964C182.646 124.46 183.922 124.818 184.573 125.803L186.946 129.396C187.464 130.18 188.396 130.585 189.323 130.428L193.568 129.71C194.732 129.513 195.864 130.201 196.225 131.325L197.54 135.425C197.828 136.32 198.616 136.962 199.551 137.061L203.832 137.515C205.006 137.639 205.91 138.607 205.954 139.787L206.115 144.09C206.15 145.029 206.736 145.859 207.61 146.207L211.61 147.8C212.707 148.236 213.316 149.412 213.041 150.56L212.035 154.747C211.815 155.661 212.155 156.618 212.902 157.189L216.325 159.801C217.263 160.518 217.533 161.815 216.958 162.845L214.859 166.605C214.401 167.426 214.471 168.44 215.036 169.191L217.627 172.63C218.337 173.573 218.247 174.894 217.415 175.732L214.38 178.786C213.717 179.453 213.511 180.448 213.853 181.324L215.419 185.334C215.849 186.434 215.405 187.682 214.378 188.264L210.632 190.386C209.814 190.85 209.346 191.752 209.439 192.687L209.866 196.972C209.983 198.147 209.219 199.229 208.073 199.512L203.893 200.545C202.98 200.77 202.287 201.513 202.124 202.439L201.379 206.68C201.175 207.842 200.147 208.678 198.967 208.642L194.663 208.509C193.724 208.479 192.856 209.007 192.449 209.855L190.587 213.738C190.077 214.802 188.862 215.33 187.736 214.976L183.627 213.687C182.731 213.405 181.752 213.679 181.132 214.386L178.292 217.622C177.513 218.509 176.201 218.69 175.212 218.046L171.604 215.696C170.816 215.183 169.8 215.183 169.012 215.696L165.404 218.046C164.415 218.69 163.103 218.509 162.324 217.622L159.484 214.386C158.864 213.679 157.885 213.405 156.989 213.687L152.88 214.976C151.754 215.33 150.539 214.802 150.029 213.738L148.167 209.855C147.76 209.007 146.892 208.479 145.953 208.509L141.649 208.642C140.469 208.678 139.441 207.842 139.237 206.68L138.492 202.439C138.329 201.513 137.636 200.77 136.723 200.545L132.543 199.512C131.397 199.229 130.633 198.147 130.75 196.972L131.177 192.687C131.27 191.752 130.802 190.85 129.984 190.386L126.238 188.264C125.211 187.682 124.767 186.434 125.197 185.334L126.763 181.324C127.105 180.448 126.899 179.453 126.236 178.786L123.201 175.732C122.369 174.894 122.279 173.573 122.989 172.63L125.58 169.191C126.145 168.44 126.215 167.426 125.757 166.605L123.658 162.845C123.083 161.815 123.353 160.518 124.291 159.801L127.714 157.189C128.461 156.618 128.801 155.661 128.581 154.747L127.575 150.56C127.3 149.412 127.909 148.236 129.006 147.8L133.006 146.207C133.88 145.859 134.466 145.029 134.501 144.09L134.662 139.787C134.706 138.607 135.61 137.639 136.784 137.515L141.065 137.061C142 136.962 142.788 136.32 143.076 135.425L144.391 131.325C144.752 130.201 145.884 129.513 147.048 129.71L151.293 130.428C152.22 130.585 153.152 130.18 153.67 129.396L156.043 125.803C156.694 124.818 157.97 124.46 159.037 124.964L162.932 126.801C163.782 127.202 164.789 127.063 165.499 126.448L168.753 123.628Z" fill="url(#paint0_linear_157_70)" fill-opacity="0.57"/>
<path d="M168.753 123.628C169.646 122.855 170.97 122.855 171.863 123.628L175.117 126.448C175.827 127.063 176.834 127.202 177.684 126.801L181.579 124.964C182.646 124.46 183.922 124.818 184.573 125.803L186.946 129.396C187.464 130.18 188.396 130.585 189.323 130.428L193.568 129.71C194.732 129.513 195.864 130.201 196.225 131.325L197.54 135.425C197.828 136.32 198.616 136.962 199.551 137.061L203.832 137.515C205.006 137.639 205.91 138.607 205.954 139.787L206.115 144.09C206.15 145.029 206.736 145.859 207.61 146.207L211.61 147.8C212.707 148.236 213.316 149.412 213.041 150.56L212.035 154.747C211.815 155.661 212.155 156.618 212.902 157.189L216.325 159.801C217.263 160.518 217.533 161.815 216.958 162.845L214.859 166.605C214.401 167.426 214.471 168.44 215.036 169.191L217.627 172.63C218.337 173.573 218.247 174.894 217.415 175.732L214.38 178.786C213.717 179.453 213.511 180.448 213.853 181.324L215.419 185.334C215.849 186.434 215.405 187.682 214.378 188.264L210.632 190.386C209.814 190.85 209.346 191.752 209.439 192.687L209.866 196.972C209.983 198.147 209.219 199.229 208.073 199.512L203.893 200.545C202.98 200.77 202.287 201.513 202.124 202.439L201.379 206.68C201.175 207.842 200.147 208.678 198.967 208.642L194.663 208.509C193.724 208.479 192.856 209.007 192.449 209.855L190.587 213.738C190.077 214.802 188.862 215.33 187.736 214.976L183.627 213.687C182.731 213.405 181.752 213.679 181.132 214.386L178.292 217.622C177.513 218.509 176.201 218.69 175.212 218.046L171.604 215.696C170.816 215.183 169.8 215.183 169.012 215.696L165.404 218.046C164.415 218.69 163.103 218.509 162.324 217.622L159.484 214.386C158.864 213.679 157.885 213.405 156.989 213.687L152.88 214.976C151.754 215.33 150.539 214.802 150.029 213.738L148.167 209.855C147.76 209.007 146.892 208.479 145.953 208.509L141.649 208.642C140.469 208.678 139.441 207.842 139.237 206.68L138.492 202.439C138.329 201.513 137.636 200.77 136.723 200.545L132.543 199.512C131.397 199.229 130.633 198.147 130.75 196.972L131.177 192.687C131.27 191.752 130.802 190.85 129.984 190.386L126.238 188.264C125.211 187.682 124.767 186.434 125.197 185.334L126.763 181.324C127.105 180.448 126.899 179.453 126.236 178.786L123.201 175.732C122.369 174.894 122.279 173.573 122.989 172.63L125.58 169.191C126.145 168.44 126.215 167.426 125.757 166.605L123.658 162.845C123.083 161.815 123.353 160.518 124.291 159.801L127.714 157.189C128.461 156.618 128.801 155.661 128.581 154.747L127.575 150.56C127.3 149.412 127.909 148.236 129.006 147.8L133.006 146.207C133.88 145.859 134.466 145.029 134.501 144.09L134.662 139.787C134.706 138.607 135.61 137.639 136.784 137.515L141.065 137.061C142 136.962 142.788 136.32 143.076 135.425L144.391 131.325C144.752 130.201 145.884 129.513 147.048 129.71L151.293 130.428C152.22 130.585 153.152 130.18 153.67 129.396L156.043 125.803C156.694 124.818 157.97 124.46 159.037 124.964L162.932 126.801C163.782 127.202 164.789 127.063 165.499 126.448L168.753 123.628Z" fill="url(#paint1_radial_157_70)" fill-opacity="0.3"/>
<path d="M169.041 123.96C169.768 123.33 170.847 123.331 171.575 123.96L174.83 126.78C175.671 127.509 176.864 127.673 177.872 127.198L181.766 125.361C182.636 124.951 183.676 125.242 184.207 126.044L186.58 129.637C187.193 130.567 188.298 131.047 189.396 130.861L193.641 130.143C194.59 129.983 195.512 130.543 195.806 131.459L197.123 135.559C197.463 136.62 198.397 137.38 199.504 137.498L203.786 137.952C204.742 138.053 205.48 138.842 205.516 139.803L205.676 144.106C205.718 145.219 206.413 146.203 207.448 146.615L211.448 148.208C212.342 148.563 212.839 149.522 212.614 150.458L211.608 154.644C211.348 155.727 211.751 156.862 212.636 157.538L216.059 160.15C216.824 160.734 217.043 161.791 216.574 162.631L214.476 166.391C213.933 167.364 214.015 168.565 214.685 169.455L217.276 172.894C217.855 173.663 217.781 174.74 217.103 175.422L214.068 178.477C213.283 179.267 213.039 180.446 213.444 181.483L215.01 185.494C215.36 186.39 214.999 187.407 214.162 187.881L210.416 190.004C209.446 190.553 208.892 191.623 209.002 192.731L209.429 197.015C209.525 197.973 208.901 198.855 207.967 199.085L203.788 200.119C202.706 200.386 201.885 201.266 201.692 202.363L200.947 206.604C200.78 207.551 199.942 208.232 198.981 208.203L194.677 208.07C193.564 208.035 192.535 208.661 192.053 209.666L190.192 213.547C189.776 214.415 188.786 214.845 187.868 214.557L183.759 213.268C182.697 212.935 181.537 213.259 180.802 214.096L177.961 217.333C177.327 218.056 176.258 218.202 175.452 217.677L171.843 215.328C170.91 214.72 169.706 214.72 168.773 215.328L165.165 217.677C164.358 218.202 163.288 218.056 162.654 217.333L159.814 214.096C159.079 213.259 157.92 212.935 156.857 213.268L152.749 214.557C151.831 214.845 150.84 214.415 150.424 213.547L148.563 209.666C148.081 208.661 147.052 208.035 145.939 208.07L141.635 208.203C140.674 208.232 139.836 207.551 139.669 206.604L138.924 202.363C138.732 201.266 137.91 200.386 136.829 200.119L132.648 199.085C131.714 198.855 131.092 197.972 131.187 197.015L131.614 192.731C131.724 191.623 131.17 190.553 130.201 190.004L126.455 187.881C125.617 187.407 125.256 186.39 125.606 185.494L127.172 181.483C127.577 180.446 127.332 179.267 126.547 178.477L123.513 175.422C122.835 174.74 122.761 173.663 123.339 172.894L125.93 169.455C126.6 168.565 126.683 167.364 126.14 166.391L124.042 162.631C123.573 161.791 123.792 160.734 124.557 160.15L127.98 157.538C128.865 156.862 129.269 155.727 129.008 154.644L128.002 150.458C127.778 149.522 128.275 148.563 129.168 148.208L133.168 146.615C134.203 146.203 134.897 145.219 134.939 144.106L135.1 139.803C135.136 138.842 135.873 138.053 136.83 137.952L141.112 137.498C142.219 137.38 143.153 136.62 143.494 135.559L144.809 131.459C145.103 130.543 146.026 129.983 146.975 130.143L151.22 130.861C152.318 131.047 153.423 130.567 154.037 129.637L156.41 126.044C156.94 125.242 157.98 124.95 158.85 125.361L162.745 127.198C163.752 127.673 164.945 127.509 165.787 126.78L169.041 123.96Z" stroke="white" stroke-opacity="0.22" stroke-width="0.878201"/>
<path d="M152.544 176.73C148.746 176.73 142.652 179.104 140.08 180.291C143.246 181.478 150.17 183.853 152.544 183.853C154.918 183.853 162.634 181.478 166.196 180.291C163.228 179.104 156.343 176.73 152.544 176.73Z" fill="white"/>
<path d="M152.544 176.73C148.746 176.73 142.652 179.104 140.08 180.291C143.246 181.478 150.17 183.853 152.544 183.853C154.918 183.853 162.634 181.478 166.196 180.291C163.228 179.104 156.343 176.73 152.544 176.73Z" fill="white"/>
<path d="M186.376 176.935C182.577 176.935 176.484 179.309 173.912 180.496C177.077 181.683 184.002 184.057 186.376 184.057C188.75 184.057 196.466 181.683 200.027 180.496C197.059 179.309 190.174 176.935 186.376 176.935Z" fill="white"/>
<path d="M152.544 176.73C148.746 176.73 142.652 179.104 140.08 180.291C143.246 181.478 150.17 183.853 152.544 183.853C154.918 183.853 162.634 181.478 166.196 180.291C163.228 179.104 156.343 176.73 152.544 176.73Z" fill="white"/>
<path d="M186.104 177.608C188.726 177.608 190.851 179.734 190.852 182.356C190.852 182.662 190.822 182.962 190.767 183.252C188.889 183.727 187.261 184.057 186.376 184.057C185.347 184.057 183.463 183.612 181.4 183.01C181.371 182.796 181.355 182.578 181.355 182.356C181.356 179.734 183.481 177.608 186.104 177.608Z" fill="black"/>
<path d="M152.732 177.608C155.354 177.608 157.48 179.734 157.48 182.356C157.48 182.545 157.467 182.731 157.446 182.914C155.355 183.459 153.509 183.853 152.544 183.853C151.591 183.853 149.903 183.467 148.019 182.932C147.996 182.743 147.984 182.551 147.984 182.356C147.984 179.734 150.11 177.609 152.732 177.608Z" fill="black"/>
<path d="M162.914 188.945C162.914 188.504 163.271 188.147 163.712 188.147H176.166C176.607 188.147 176.965 188.504 176.965 188.945V189.903C176.965 193.783 173.819 196.929 169.939 196.929C166.059 196.929 162.914 193.783 162.914 189.903V188.945Z" fill="black"/>
<defs>
<filter id="filter0_f_157_70" x="0.265694" y="0.803291" width="340.084" height="339.873" filterUnits="userSpaceOnUse" color-interpolation-filters="sRGB">
<feFlood flood-opacity="0" result="BackgroundImageFix"/>
<feBlend mode="normal" in="SourceGraphic" in2="BackgroundImageFix" result="shape"/>
<feGaussianBlur stdDeviation="61.1228" result="effect1_foregroundBlur_157_70"/>
</filter>
<linearGradient id="paint0_linear_157_70" x1="126.328" y1="142.779" x2="214.587" y2="193.275" gradientUnits="userSpaceOnUse">
<stop stop-color="#FD6DFF" stop-opacity="0.1"/>
<stop offset="1" stop-color="#0D6344"/>
</linearGradient>
<radialGradient id="paint1_radial_157_70" cx="0" cy="0" r="1" gradientUnits="userSpaceOnUse" gradientTransform="translate(170.308 170.952) rotate(90) scale(48.6698)">
<stop stop-color="#74FFCC"/>
<stop offset="1" stop-color="#34D399"/>
</radialGradient>
</defs>
</svg>
