<svg width="244" height="244" viewBox="0 0 244 244" fill="none" xmlns="http://www.w3.org/2000/svg">
<path d="M84.386 213.67L84.0481 213.417L83.6292 213.357L37.176 206.701L30.5217 160.249L30.4612 159.83L30.2073 159.492L2.06666 121.94L30.2073 84.3859L30.4612 84.048L30.5217 83.6291L37.177 37.1769L83.6292 30.5217L84.0481 30.4611L84.386 30.2072L121.94 2.0666L159.492 30.2072L159.83 30.4611L160.249 30.5217L206.701 37.176L213.357 83.6291L213.417 84.0481L213.67 84.3859L241.813 121.94L213.67 159.492L213.417 159.83L213.357 160.249L206.702 206.702L160.249 213.357L159.83 213.417L159.492 213.67L121.94 241.813L84.386 213.67Z" stroke="#C5F09A" stroke-width="3.30729"/>
</svg>
