<svg width="608" height="251" viewBox="0 0 608 251" fill="none" xmlns="http://www.w3.org/2000/svg">
<path d="M178.5 219.071C189.462 219.071 198.35 227.958 198.35 238.921V247.055C198.35 248.493 197.184 249.659 195.746 249.659H161.254C159.816 249.659 158.65 248.493 158.65 247.055V238.921C158.65 227.958 167.538 219.071 178.5 219.071Z" fill="white" stroke="#51B85F" stroke-width="1.30159"/>
<rect x="178.5" y="181.92" width="23.5482" height="23.5482" rx="3.90476" transform="rotate(45 178.5 181.92)" fill="white" stroke="#51B85F" stroke-width="1.30159"/>
<path d="M241.5 219.071C252.462 219.071 261.35 227.958 261.35 238.921V247.055C261.35 248.493 260.184 249.659 258.746 249.659H224.254C222.816 249.659 221.65 248.493 221.65 247.055V238.921C221.65 227.958 230.538 219.071 241.5 219.071Z" fill="white" stroke="#51B85F" stroke-width="1.30159"/>
<rect x="241.5" y="181.92" width="23.5482" height="23.5482" rx="3.90476" transform="rotate(45 241.5 181.92)" fill="white" stroke="#51B85F" stroke-width="1.30159"/>
<path d="M304.5 219.071C315.462 219.071 324.35 227.958 324.35 238.921V247.055C324.35 248.493 323.184 249.659 321.746 249.659H287.254C285.816 249.659 284.65 248.493 284.65 247.055V238.921C284.65 227.958 293.538 219.071 304.5 219.071Z" fill="white" stroke="#51B85F" stroke-width="1.30159"/>
<rect x="304.5" y="181.92" width="23.5482" height="23.5482" rx="3.90476" transform="rotate(45 304.5 181.92)" fill="white" stroke="#51B85F" stroke-width="1.30159"/>
<path d="M367.5 219.071C378.462 219.071 387.35 227.958 387.35 238.921V247.055C387.35 248.493 386.184 249.659 384.746 249.659H350.254C348.816 249.659 347.65 248.493 347.65 247.055V238.921C347.65 227.958 356.538 219.071 367.5 219.071Z" fill="white" stroke="#51B85F" stroke-width="1.30159"/>
<rect x="367.5" y="181.92" width="23.5482" height="23.5482" rx="3.90476" transform="rotate(45 367.5 181.92)" fill="white" stroke="#51B85F" stroke-width="1.30159"/>
<path d="M430.5 219.071C441.462 219.071 450.35 227.958 450.35 238.921V247.055C450.35 248.493 449.184 249.659 447.746 249.659H413.254C411.816 249.659 410.65 248.493 410.65 247.055V238.921C410.65 227.958 419.538 219.071 430.5 219.071Z" fill="white" stroke="#51B85F" stroke-width="1.30159"/>
<rect x="430.5" y="181.92" width="23.5482" height="23.5482" rx="3.90476" transform="rotate(45 430.5 181.92)" fill="white" stroke="#51B85F" stroke-width="1.30159"/>
<path d="M20.5 38.071C31.4624 38.071 40.3496 46.9582 40.3496 57.9207V66.0554C40.3496 67.4931 39.1838 68.6589 37.7461 68.6589H3.25391C1.81624 68.6589 0.650391 67.4931 0.650391 66.0554V57.9207C0.650391 46.9582 9.53759 38.071 20.5 38.071Z" fill="white" stroke="#51B85F" stroke-width="1.30159"/>
<rect x="20.5" y="0.920361" width="23.5482" height="23.5482" rx="3.90476" transform="rotate(45 20.5 0.920361)" fill="white" stroke="#51B85F" stroke-width="1.30159"/>
<path d="M20.5 127.071C31.4624 127.071 40.3496 135.958 40.3496 146.921V155.055C40.3496 156.493 39.1838 157.659 37.7461 157.659H3.25391C1.81624 157.659 0.650391 156.493 0.650391 155.055V146.921C0.650391 135.958 9.53759 127.071 20.5 127.071Z" fill="white" stroke="#51B85F" stroke-width="1.30159"/>
<rect x="20.5" y="89.9204" width="23.5482" height="23.5482" rx="3.90476" transform="rotate(45 20.5 89.9204)" fill="white" stroke="#51B85F" stroke-width="1.30159"/>
<path d="M83.5 38.071C94.4624 38.071 103.35 46.9582 103.35 57.9207V66.0554C103.35 67.4931 102.184 68.6589 100.746 68.6589H66.2539C64.8162 68.6589 63.6504 67.4931 63.6504 66.0554V57.9207C63.6504 46.9582 72.5376 38.071 83.5 38.071Z" fill="white" stroke="#51B85F" stroke-width="1.30159"/>
<rect x="83.5" y="0.920361" width="23.5482" height="23.5482" rx="3.90476" transform="rotate(45 83.5 0.920361)" fill="white" stroke="#51B85F" stroke-width="1.30159"/>
<path d="M83.5 127.071C94.4624 127.071 103.35 135.958 103.35 146.921V155.055C103.35 156.493 102.184 157.659 100.746 157.659H66.2539C64.8162 157.659 63.6504 156.493 63.6504 155.055V146.921C63.6504 135.958 72.5376 127.071 83.5 127.071Z" fill="white" stroke="#51B85F" stroke-width="1.30159"/>
<rect x="83.5" y="89.9204" width="23.5482" height="23.5482" rx="3.90476" transform="rotate(45 83.5 89.9204)" fill="white" stroke="#51B85F" stroke-width="1.30159"/>
<path d="M146.5 38.071C157.462 38.071 166.35 46.9582 166.35 57.9207V66.0554C166.35 67.4931 165.184 68.6589 163.746 68.6589H129.254C127.816 68.6589 126.65 67.4931 126.65 66.0554V57.9207C126.65 46.9582 135.538 38.071 146.5 38.071Z" fill="white" stroke="#51B85F" stroke-width="1.30159"/>
<rect x="146.5" y="0.920361" width="23.5482" height="23.5482" rx="3.90476" transform="rotate(45 146.5 0.920361)" fill="white" stroke="#51B85F" stroke-width="1.30159"/>
<path d="M146.5 127.071C157.462 127.071 166.35 135.958 166.35 146.921V155.055C166.35 156.493 165.184 157.659 163.746 157.659H129.254C127.816 157.659 126.65 156.493 126.65 155.055V146.921C126.65 135.958 135.538 127.071 146.5 127.071Z" fill="white" stroke="#51B85F" stroke-width="1.30159"/>
<rect x="146.5" y="89.9204" width="23.5482" height="23.5482" rx="3.90476" transform="rotate(45 146.5 89.9204)" fill="white" stroke="#51B85F" stroke-width="1.30159"/>
<path d="M209.5 38.071C220.462 38.071 229.35 46.9582 229.35 57.9207V66.0554C229.35 67.4931 228.184 68.6589 226.746 68.6589H192.254C190.816 68.6589 189.65 67.4931 189.65 66.0554V57.9207C189.65 46.9582 198.538 38.071 209.5 38.071Z" fill="white" stroke="#51B85F" stroke-width="1.30159"/>
<rect x="209.5" y="0.920361" width="23.5482" height="23.5482" rx="3.90476" transform="rotate(45 209.5 0.920361)" fill="white" stroke="#51B85F" stroke-width="1.30159"/>
<path d="M209.5 127.071C220.462 127.071 229.35 135.958 229.35 146.921V155.055C229.35 156.493 228.184 157.659 226.746 157.659H192.254C190.816 157.659 189.65 156.493 189.65 155.055V146.921C189.65 135.958 198.538 127.071 209.5 127.071Z" fill="white" stroke="#51B85F" stroke-width="1.30159"/>
<rect x="209.5" y="89.9204" width="23.5482" height="23.5482" rx="3.90476" transform="rotate(45 209.5 89.9204)" fill="white" stroke="#51B85F" stroke-width="1.30159"/>
<path d="M272.5 38.071C283.462 38.071 292.35 46.9582 292.35 57.9207V66.0554C292.35 67.4931 291.184 68.6589 289.746 68.6589H255.254C253.816 68.6589 252.65 67.4931 252.65 66.0554V57.9207C252.65 46.9582 261.538 38.071 272.5 38.071Z" fill="white" stroke="#51B85F" stroke-width="1.30159"/>
<rect x="272.5" y="0.920361" width="23.5482" height="23.5482" rx="3.90476" transform="rotate(45 272.5 0.920361)" fill="white" stroke="#51B85F" stroke-width="1.30159"/>
<path d="M272.5 127.071C283.462 127.071 292.35 135.958 292.35 146.921V155.055C292.35 156.493 291.184 157.659 289.746 157.659H255.254C253.816 157.659 252.65 156.493 252.65 155.055V146.921C252.65 135.958 261.538 127.071 272.5 127.071Z" fill="white" stroke="#51B85F" stroke-width="1.30159"/>
<rect x="272.5" y="89.9204" width="23.5482" height="23.5482" rx="3.90476" transform="rotate(45 272.5 89.9204)" fill="white" stroke="#51B85F" stroke-width="1.30159"/>
<path d="M335.5 38.071C346.462 38.071 355.35 46.9582 355.35 57.9207V66.0554C355.35 67.4931 354.184 68.6589 352.746 68.6589H318.254C316.816 68.6589 315.65 67.4931 315.65 66.0554V57.9207C315.65 46.9582 324.538 38.071 335.5 38.071Z" fill="white" stroke="#51B85F" stroke-width="1.30159"/>
<rect x="335.5" y="0.920361" width="23.5482" height="23.5482" rx="3.90476" transform="rotate(45 335.5 0.920361)" fill="white" stroke="#51B85F" stroke-width="1.30159"/>
<path d="M335.5 127.071C346.462 127.071 355.35 135.958 355.35 146.921V155.055C355.35 156.493 354.184 157.659 352.746 157.659H318.254C316.816 157.659 315.65 156.493 315.65 155.055V146.921C315.65 135.958 324.538 127.071 335.5 127.071Z" fill="white" stroke="#51B85F" stroke-width="1.30159"/>
<rect x="335.5" y="89.9204" width="23.5482" height="23.5482" rx="3.90476" transform="rotate(45 335.5 89.9204)" fill="white" stroke="#51B85F" stroke-width="1.30159"/>
<path d="M398.5 38.071C409.462 38.071 418.35 46.9582 418.35 57.9207V66.0554C418.35 67.4931 417.184 68.6589 415.746 68.6589H381.254C379.816 68.6589 378.65 67.4931 378.65 66.0554V57.9207C378.65 46.9582 387.538 38.071 398.5 38.071Z" fill="white" stroke="#51B85F" stroke-width="1.30159"/>
<rect x="398.5" y="0.920361" width="23.5482" height="23.5482" rx="3.90476" transform="rotate(45 398.5 0.920361)" fill="white" stroke="#51B85F" stroke-width="1.30159"/>
<path d="M398.5 127.071C409.462 127.071 418.35 135.958 418.35 146.921V155.055C418.35 156.493 417.184 157.659 415.746 157.659H381.254C379.816 157.659 378.65 156.493 378.65 155.055V146.921C378.65 135.958 387.538 127.071 398.5 127.071Z" fill="white" stroke="#51B85F" stroke-width="1.30159"/>
<rect x="398.5" y="89.9204" width="23.5482" height="23.5482" rx="3.90476" transform="rotate(45 398.5 89.9204)" fill="white" stroke="#51B85F" stroke-width="1.30159"/>
<path d="M461.5 38.071C472.462 38.071 481.35 46.9582 481.35 57.9207V66.0554C481.35 67.4931 480.184 68.6589 478.746 68.6589H444.254C442.816 68.6589 441.65 67.4931 441.65 66.0554V57.9207C441.65 46.9582 450.538 38.071 461.5 38.071Z" fill="white" stroke="#51B85F" stroke-width="1.30159"/>
<rect x="461.5" y="0.920361" width="23.5482" height="23.5482" rx="3.90476" transform="rotate(45 461.5 0.920361)" fill="white" stroke="#51B85F" stroke-width="1.30159"/>
<path d="M461.5 127.071C472.462 127.071 481.35 135.958 481.35 146.921V155.055C481.35 156.493 480.184 157.659 478.746 157.659H444.254C442.816 157.659 441.65 156.493 441.65 155.055V146.921C441.65 135.958 450.538 127.071 461.5 127.071Z" fill="white" stroke="#51B85F" stroke-width="1.30159"/>
<rect x="461.5" y="89.9204" width="23.5482" height="23.5482" rx="3.90476" transform="rotate(45 461.5 89.9204)" fill="white" stroke="#51B85F" stroke-width="1.30159"/>
<path d="M524.5 38.071C535.462 38.071 544.35 46.9582 544.35 57.9207V66.0554C544.35 67.4931 543.184 68.6589 541.746 68.6589H507.254C505.816 68.6589 504.65 67.4931 504.65 66.0554V57.9207C504.65 46.9582 513.538 38.071 524.5 38.071Z" fill="white" stroke="#51B85F" stroke-width="1.30159"/>
<rect x="524.5" y="0.920361" width="23.5482" height="23.5482" rx="3.90476" transform="rotate(45 524.5 0.920361)" fill="white" stroke="#51B85F" stroke-width="1.30159"/>
<path d="M524.5 127.071C535.462 127.071 544.35 135.958 544.35 146.921V155.055C544.35 156.493 543.184 157.659 541.746 157.659H507.254C505.816 157.659 504.65 156.493 504.65 155.055V146.921C504.65 135.958 513.538 127.071 524.5 127.071Z" fill="white" stroke="#51B85F" stroke-width="1.30159"/>
<rect x="524.5" y="89.9204" width="23.5482" height="23.5482" rx="3.90476" transform="rotate(45 524.5 89.9204)" fill="white" stroke="#51B85F" stroke-width="1.30159"/>
<path d="M587.5 38.071C598.462 38.071 607.35 46.9582 607.35 57.9207V66.0554C607.35 67.4931 606.184 68.6589 604.746 68.6589H570.254C568.816 68.6589 567.65 67.4931 567.65 66.0554V57.9207C567.65 46.9582 576.538 38.071 587.5 38.071Z" fill="white" stroke="#51B85F" stroke-width="1.30159"/>
<rect x="587.5" y="0.920361" width="23.5482" height="23.5482" rx="3.90476" transform="rotate(45 587.5 0.920361)" fill="white" stroke="#51B85F" stroke-width="1.30159"/>
<path d="M587.5 127.071C598.462 127.071 607.35 135.958 607.35 146.921V155.055C607.35 156.493 606.184 157.659 604.746 157.659H570.254C568.816 157.659 567.65 156.493 567.65 155.055V146.921C567.65 135.958 576.538 127.071 587.5 127.071Z" fill="white" stroke="#51B85F" stroke-width="1.30159"/>
<rect x="587.5" y="89.9204" width="23.5482" height="23.5482" rx="3.90476" transform="rotate(45 587.5 89.9204)" fill="white" stroke="#51B85F" stroke-width="1.30159"/>
</svg>
