<svg width="27" height="25" viewBox="0 0 27 25" fill="none" xmlns="http://www.w3.org/2000/svg">
<g clip-path="url(#clip0_117_423)">
<path d="M18.8502 0.234293C17.6027 0.828311 11.4206 6.52348 7.92356 9.5644C8.49028 6.77919 9.63896 1.12694 9.69993 0.799668C9.77614 0.390572 9.14684 0.00621934 8.91877 0.00139316C8.6907 -0.00343302 3.96345 0.00621969 3.66482 0.00139316C3.36619 -0.00343337 2.23664 0.036919 2.78163 0.483092C3.48315 1.05741 4.04638 1.97591 4.02565 2.88819C4.00491 3.80046 0.252136 22.3985 0.0371718 23.6305C-0.134799 24.6161 0.331646 24.7559 0.583873 24.7621H4.15005C4.68912 24.7621 4.97771 24.5153 5.04159 24.2438C5.1211 23.9058 5.93314 19.9727 6.05754 19.2884C6.18194 18.6042 6.41001 18.1481 6.63808 17.9408C6.86615 17.7334 8.81511 15.9711 9.14684 15.6808C9.47858 15.3905 10.0799 14.7685 10.8078 14.751C11.3901 14.7369 11.74 15.0609 11.8422 15.2247C13.8603 17.8993 17.9959 23.3813 18.394 23.912C18.7921 24.4428 19.1992 24.7144 19.5551 24.7414H25.3251C25.5385 24.7414 25.7652 24.6997 25.7544 24.4096C25.7303 23.7607 17.3159 13.2135 16.8597 12.6122C16.4036 12.011 16.2758 11.8658 15.7816 11.8658C15.2962 11.8658 13.4233 12.0031 13.3143 11.9073C13.1657 11.7767 26.1455 1.12582 26.2935 0.379424C26.3523 0.0829343 26.1242 0.0684242 25.7752 0.0684242H24.4897H21.898H19.7417C19.4514 0.0684242 19.2407 0.0483339 18.8502 0.234293Z" fill="#1F7148"/>
</g>
<defs>
<clipPath id="clip0_117_423">
<rect width="26.3027" height="24.7621" fill="white"/>
</clipPath>
</defs>
</svg>
