<svg width="64" height="24" viewBox="0 0 64 24" fill="none" xmlns="http://www.w3.org/2000/svg">
<rect width="64" height="24" rx="6" fill="white"/>
<g clip-path="url(#clip0_590_116)">
<path d="M50.4535 15.2871C49.9222 15.2871 49.4606 15.1858 49.0688 14.9833C48.677 14.7774 48.3715 14.4686 48.1524 14.0568C47.9366 13.6451 47.8286 13.1354 47.8286 12.5278C47.8286 11.95 47.9415 11.4519 48.1673 11.0335C48.3931 10.6118 48.7052 10.2914 49.1037 10.0723C49.5022 9.8531 49.9554 9.74353 50.4635 9.74353C50.9516 9.74353 51.3849 9.84978 51.7634 10.0623C52.1419 10.2748 52.4358 10.5836 52.645 10.9887C52.8575 11.3938 52.9637 11.8786 52.9637 12.4431C52.9637 12.6456 52.9621 12.8067 52.9588 12.9262H48.9891V11.8803H51.9975L51.4297 12.0745C51.4297 11.8022 51.3899 11.5748 51.3102 11.3921C51.2338 11.2062 51.1209 11.0667 50.9715 10.9738C50.822 10.8808 50.6411 10.8343 50.4286 10.8343C50.2061 10.8343 50.0102 10.8891 49.8408 10.9987C49.6748 11.1049 49.5453 11.2643 49.4524 11.4768C49.3627 11.6893 49.3178 11.945 49.3178 12.2439V12.7569C49.3178 13.0624 49.3643 13.3214 49.4573 13.5339C49.5503 13.7464 49.6831 13.9074 49.8558 14.017C50.0285 14.1233 50.2326 14.1764 50.4684 14.1764C50.7274 14.1764 50.9416 14.1099 51.1109 13.9772C51.2803 13.841 51.3865 13.6501 51.4297 13.4044H52.9389C52.8924 13.7895 52.7612 14.1233 52.5454 14.4055C52.3329 14.6877 52.049 14.9052 51.6937 15.058C51.3384 15.2107 50.925 15.2871 50.4535 15.2871Z" fill="#313131"/>
<path d="M45.8682 8.00018H47.3773V15.1425H45.8682V8.00018Z" fill="#313131"/>
<path d="M43.3 15.287C43.0145 15.287 42.7588 15.2372 42.533 15.1376C42.3105 15.0379 42.1213 14.8885 41.9652 14.6893C41.8092 14.4868 41.693 14.2377 41.6166 13.9422L41.7759 13.987V15.1425H40.2817V9.88788H41.7909V11.0633L41.6215 11.0932C41.6979 10.811 41.8141 10.5702 41.9702 10.371C42.1296 10.1685 42.3238 10.0141 42.553 9.9078C42.7821 9.79823 43.0394 9.74344 43.325 9.74344C43.7533 9.74344 44.1252 9.85467 44.4407 10.0771C44.7561 10.2996 44.9985 10.62 45.1678 11.0384C45.3371 11.4535 45.4218 11.9466 45.4218 12.5177C45.4218 13.0855 45.3355 13.5786 45.1628 13.997C44.9902 14.4121 44.7428 14.7308 44.4207 14.9533C44.1019 15.1758 43.7284 15.287 43.3 15.287ZM42.8319 14.1364C43.0577 14.1364 43.2469 14.07 43.3996 13.9372C43.5557 13.8044 43.6719 13.6168 43.7483 13.3744C43.828 13.132 43.8679 12.8464 43.8679 12.5177C43.8679 12.189 43.828 11.9034 43.7483 11.661C43.6719 11.4186 43.5557 11.231 43.3996 11.0982C43.2469 10.9621 43.0577 10.894 42.8319 10.894C42.6094 10.894 42.4185 10.9621 42.2591 11.0982C42.103 11.231 41.9851 11.4203 41.9054 11.666C41.8258 11.9084 41.7859 12.1923 41.7859 12.5177C41.7859 12.8464 41.8258 13.132 41.9054 13.3744C41.9851 13.6168 42.103 13.8044 42.2591 13.9372C42.4185 14.07 42.6094 14.1364 42.8319 14.1364ZM40.2817 8.00018H41.7909V9.88788H40.2817V8.00018Z" fill="#313131"/>
<path d="M36.4937 15.2871C36.165 15.2871 35.8695 15.2223 35.6072 15.0928C35.3482 14.9633 35.1439 14.7791 34.9945 14.54C34.8484 14.2976 34.7754 14.0154 34.7754 13.6933C34.7754 13.2018 34.9198 12.8266 35.2087 12.5676C35.4976 12.3053 35.9143 12.1343 36.4589 12.0546L37.3704 11.9251C37.553 11.8985 37.6974 11.8653 37.8037 11.8255C37.9099 11.7856 37.9879 11.7325 38.0377 11.6661C38.0876 11.5964 38.1124 11.5084 38.1124 11.4021C38.1124 11.2925 38.0826 11.1929 38.0228 11.1033C37.9664 11.0103 37.88 10.9372 37.7638 10.8841C37.6509 10.8277 37.5131 10.7994 37.3504 10.7994C37.0914 10.7994 36.8839 10.8675 36.7278 11.0037C36.5718 11.1365 36.4871 11.3191 36.4738 11.5515H34.9148C34.9281 11.1996 35.0344 10.8874 35.2336 10.6152C35.4362 10.3396 35.7167 10.1254 36.0754 9.97264C36.4339 9.8199 36.849 9.74353 37.3205 9.74353C37.8153 9.74353 38.2337 9.82488 38.5757 9.98758C38.9177 10.147 39.175 10.3761 39.3477 10.6749C39.5237 10.9738 39.6116 11.3307 39.6116 11.7458V13.9373C39.6116 14.173 39.6283 14.3922 39.6615 14.5947C39.698 14.794 39.7495 14.9201 39.8159 14.9733V15.1426H38.2469C38.2104 14.9999 38.1822 14.8388 38.1623 14.6595C38.1423 14.4802 38.1307 14.2909 38.1274 14.0917L38.3714 13.9871C38.3084 14.2228 38.1922 14.4403 38.0228 14.6396C37.8568 14.8355 37.6426 14.9932 37.3803 15.1128C37.1213 15.229 36.8258 15.2871 36.4937 15.2871ZM37.0516 14.1814C37.2641 14.1814 37.4517 14.1349 37.6144 14.0419C37.7771 13.9456 37.9016 13.8128 37.9879 13.6435C38.0776 13.4741 38.1224 13.2815 38.1224 13.0657V12.3783L38.2469 12.4481C38.1672 12.5543 38.0677 12.6357 37.9481 12.6921C37.8319 12.7486 37.6741 12.7967 37.4749 12.8366L37.0914 12.9113C36.8358 12.9611 36.6431 13.0374 36.5137 13.1404C36.3875 13.2433 36.3244 13.3878 36.3244 13.5737C36.3244 13.7597 36.3924 13.9074 36.5286 14.017C36.6647 14.1266 36.8391 14.1814 37.0516 14.1814Z" fill="#313131"/>
<path d="M29.6421 9.88794H31.2459L32.6255 14.3955H32.1424L33.4672 9.88794H35.0262L33.2083 15.1426H31.5297L29.6421 9.88794Z" fill="#313131"/>
<path d="M27.2831 15.2871C26.7618 15.2871 26.3036 15.1742 25.9085 14.9484C25.5166 14.7226 25.2128 14.4005 24.997 13.9821C24.7845 13.5637 24.6782 13.074 24.6782 12.5128C24.6782 11.9516 24.7845 11.4635 24.997 11.0485C25.2128 10.6301 25.5166 10.308 25.9085 10.0822C26.3036 9.85643 26.7618 9.74353 27.2831 9.74353C27.8044 9.74353 28.261 9.85643 28.6528 10.0822C29.0446 10.308 29.3468 10.6301 29.5593 11.0485C29.7752 11.4635 29.8831 11.9516 29.8831 12.5128C29.8831 13.074 29.7752 13.5637 29.5593 13.9821C29.3468 14.4005 29.0446 14.7226 28.6528 14.9484C28.261 15.1742 27.8044 15.2871 27.2831 15.2871ZM27.2831 14.1316C27.5023 14.1316 27.6899 14.0718 27.846 13.9522C28.002 13.8294 28.1215 13.6484 28.2046 13.4093C28.2876 13.167 28.3291 12.8681 28.3291 12.5128C28.3291 11.9849 28.2378 11.5847 28.0551 11.3125C27.8725 11.0369 27.6152 10.8991 27.2831 10.8991C27.064 10.8991 26.8747 10.9605 26.7153 11.0833C26.5593 11.2029 26.4397 11.3838 26.3567 11.6262C26.2737 11.8653 26.2322 12.1608 26.2322 12.5128C26.2322 12.8648 26.2737 13.162 26.3567 13.4044C26.4397 13.6468 26.5593 13.8294 26.7153 13.9522C26.8747 14.0718 27.064 14.1316 27.2831 14.1316Z" fill="#313131"/>
<path d="M20.2671 8.00012H21.831V14.0295L21.5521 13.7058C21.5521 13.7058 22.3267 13.7058 23.6592 13.7058C24.9917 13.7058 24.8095 15.1425 24.8095 15.1425H20.2671V8.00012Z" fill="#313131"/>
<mask id="mask0_590_116" style="mask-type:alpha" maskUnits="userSpaceOnUse" x="10" y="8" width="8" height="8">
<path fill-rule="evenodd" clip-rule="evenodd" d="M12.1075 8C13.2715 8 14.2151 8.94606 14.2151 10.1131V10.9162H14.9164C16.0804 10.9162 17.024 11.8622 17.024 13.0293C17.024 14.1963 16.0804 15.1423 14.9164 15.1423H10V10.1131C10 8.94606 10.9436 8 12.1075 8Z" fill="url(#paint0_linear_590_116)"/>
</mask>
<g mask="url(#mask0_590_116)">
<g filter="url(#filter0_f_590_116)">
<path d="M13.0813 16.567C15.7073 16.567 17.836 14.4383 17.836 11.8124C17.836 9.18642 15.7073 7.05768 13.0813 7.05768C10.4554 7.05768 8.32666 9.18642 8.32666 11.8124C8.32666 14.4383 10.4554 16.567 13.0813 16.567Z" fill="#4B73FF"/>
</g>
<g filter="url(#filter1_f_590_116)">
<path d="M13.6041 13.9579C16.9673 13.9579 19.6936 11.8291 19.6936 9.20317C19.6936 6.57723 16.9673 4.44849 13.6041 4.44849C10.241 4.44849 7.51465 6.57723 7.51465 9.20317C7.51465 11.8291 10.241 13.9579 13.6041 13.9579Z" fill="#FF66F4"/>
</g>
<g filter="url(#filter2_f_590_116)">
<path d="M14.597 12.4844C17.2229 12.4844 19.3517 10.6149 19.3517 8.30876C19.3517 6.00262 17.2229 4.13312 14.597 4.13312C11.971 4.13312 9.84229 6.00262 9.84229 8.30876C9.84229 10.6149 11.971 12.4844 14.597 12.4844Z" fill="#FF0105"/>
</g>
<g filter="url(#filter3_f_590_116)">
<path d="M13.6886 12.0616C15.2678 12.0616 16.548 10.7814 16.548 9.20217C16.548 7.62294 15.2678 6.34271 13.6886 6.34271C12.1093 6.34271 10.8291 7.62294 10.8291 9.20217C10.8291 10.7814 12.1093 12.0616 13.6886 12.0616Z" fill="#FE7B02"/>
</g>
</g>
</g>
<defs>
<filter id="filter0_f_590_116" x="6.1958" y="4.92681" width="13.771" height="13.7711" filterUnits="userSpaceOnUse" color-interpolation-filters="sRGB">
<feFlood flood-opacity="0" result="BackgroundImageFix"/>
<feBlend mode="normal" in="SourceGraphic" in2="BackgroundImageFix" result="shape"/>
<feGaussianBlur stdDeviation="1.06543" result="effect1_foregroundBlur_590_116"/>
</filter>
<filter id="filter1_f_590_116" x="5.38378" y="2.31762" width="16.4409" height="13.7711" filterUnits="userSpaceOnUse" color-interpolation-filters="sRGB">
<feFlood flood-opacity="0" result="BackgroundImageFix"/>
<feBlend mode="normal" in="SourceGraphic" in2="BackgroundImageFix" result="shape"/>
<feGaussianBlur stdDeviation="1.06543" result="effect1_foregroundBlur_590_116"/>
</filter>
<filter id="filter2_f_590_116" x="7.71142" y="2.00225" width="13.771" height="12.613" filterUnits="userSpaceOnUse" color-interpolation-filters="sRGB">
<feFlood flood-opacity="0" result="BackgroundImageFix"/>
<feBlend mode="normal" in="SourceGraphic" in2="BackgroundImageFix" result="shape"/>
<feGaussianBlur stdDeviation="1.06543" result="effect1_foregroundBlur_590_116"/>
</filter>
<filter id="filter3_f_590_116" x="8.69824" y="4.21185" width="9.98048" height="9.98066" filterUnits="userSpaceOnUse" color-interpolation-filters="sRGB">
<feFlood flood-opacity="0" result="BackgroundImageFix"/>
<feBlend mode="normal" in="SourceGraphic" in2="BackgroundImageFix" result="shape"/>
<feGaussianBlur stdDeviation="1.06543" result="effect1_foregroundBlur_590_116"/>
</filter>
<linearGradient id="paint0_linear_590_116" x1="12.3637" y1="9.25514" x2="14.5036" y2="15.1397" gradientUnits="userSpaceOnUse">
<stop offset="0.025" stop-color="#FF8E63"/>
<stop offset="0.56" stop-color="#FF7EB0"/>
<stop offset="0.95" stop-color="#4B73FF"/>
</linearGradient>
<clipPath id="clip0_590_116">
<rect width="43" height="7.31614" fill="white" transform="translate(10 8)"/>
</clipPath>
</defs>
</svg>
