<svg width="35" height="24" viewBox="0 0 35 24" fill="none" xmlns="http://www.w3.org/2000/svg">
<rect width="35" height="24" rx="6" fill="black"/>
<g clip-path="url(#clip0_590_117)">
<path d="M18.9258 8.00043H22.1539C22.7824 8.00043 23.3853 8.25013 23.8298 8.69461C24.2742 9.13909 24.524 9.74194 24.524 10.3705V13.4488H23.1978V10.3705C23.1978 10.339 23.1964 10.3075 23.1941 10.2767L19.966 13.4484L19.9986 13.4491L23.1978 13.4488V14.7011H19.9993C18.69 14.7011 17.6 13.6297 17.6 12.3208V9.25036H18.9258V12.3208C18.9258 12.3798 18.9303 12.4384 18.9394 12.4957L22.2382 9.25409C22.21 9.25179 22.1818 9.25066 22.1535 9.2507H18.9258V8.00043ZM15.6653 14.4707L11 9.25002H12.8771L15.6158 12.3151V9.25002H17.0152V13.9553C17.0152 14.6655 16.1383 14.9999 15.6653 14.4703V14.4707Z" fill="white"/>
</g>
<defs>
<clipPath id="clip0_590_117">
<rect width="13.524" height="7" fill="white" transform="translate(11 8)"/>
</clipPath>
</defs>
</svg>
