<svg width="23" height="23" viewBox="0 0 23 23" fill="none" xmlns="http://www.w3.org/2000/svg">
<path d="M13.7129 3.74609L14.001 3.96191L14.3574 4.0127L17.6377 4.48242L18.1084 7.76465L18.1602 8.12012L18.376 8.4082L20.3633 11.0605L18.376 13.7129L18.1602 14.001L18.1084 14.3574L17.6387 17.6387L14.3574 18.1084L14.001 18.1602L13.7129 18.376L11.0605 20.3633L8.4082 18.376L8.12012 18.1602L7.76465 18.1084L4.48242 17.6377L4.0127 14.3574L3.96191 14.001L3.74609 13.7129L1.75781 11.0605L3.74609 8.4082L3.96191 8.12012L4.0127 7.76465L4.48242 4.48242L7.76465 4.0127L8.12012 3.96191L8.4082 3.74609L11.0605 1.75781L13.7129 3.74609Z" stroke="#C5F09A" stroke-width="2.81449"/>
</svg>
