<svg width="316" height="315" viewBox="0 0 316 315" fill="none" xmlns="http://www.w3.org/2000/svg">
<rect width="316" height="315" rx="12" fill="#EDF8F6"/>
<rect x="0.5" y="0.5" width="315" height="314" rx="11.5" stroke="#1F7148" stroke-opacity="0.22"/>
<g filter="url(#filter0_f_165_991)">
<ellipse cx="157.5" cy="271.5" rx="113.5" ry="3.5" fill="#142418" fill-opacity="0.51"/>
</g>
<rect x="44" y="71" width="227" height="173" rx="5" fill="#CEEDE6"/>
<rect x="44.5" y="71.5" width="226" height="172" rx="4.5" stroke="#1F7148" stroke-opacity="0.22"/>
<path d="M44 87H271V239C271 241.761 268.761 244 266 244H49C46.2386 244 44 241.761 44 239V87Z" fill="#F5FAF9"/>
<path d="M270.5 87.5V239C270.5 241.485 268.485 243.5 266 243.5H49C46.5147 243.5 44.5 241.485 44.5 239V87.5H270.5Z" stroke="#1F7148" stroke-opacity="0.22"/>
<path d="M115.173 134.04C123.42 134.04 131.329 137.316 137.16 143.147C142.991 148.978 146.267 156.887 146.267 165.133C146.267 173.38 142.991 181.289 137.16 187.12C131.329 192.951 123.42 196.227 115.173 196.227V187.521C121.111 187.521 126.805 185.162 131.004 180.964C135.202 176.765 137.561 171.071 137.561 165.133C137.561 159.196 135.202 153.502 131.004 149.303C126.805 145.105 121.111 142.746 115.173 142.746V134.04Z" fill="#1F7148" stroke="white" stroke-width="0.586667"/>
<rect x="103" y="162" width="24" height="7" rx="3.5" fill="#31524B"/>
<path d="M93.1871 187.12C91.2657 185.198 89.6044 183.033 88.2458 180.68L95.7855 176.327C96.7638 178.021 97.9599 179.58 99.3433 180.964L93.1871 187.12Z" fill="#0C3D25" stroke="white" stroke-width="0.586667"/>
<path d="M88.2458 180.68C85.5168 175.953 84.0801 170.591 84.0801 165.133C84.0801 159.675 85.5168 154.313 88.2458 149.587L95.7855 153.94C93.8206 157.343 92.7862 161.204 92.7862 165.133C92.7862 169.063 93.8206 172.924 95.7855 176.327L88.2458 180.68Z" fill="#5D996A" stroke="white" stroke-width="0.586667"/>
<path d="M88.2458 149.587C90.9748 144.86 94.9 140.935 99.6267 138.206C104.354 135.477 109.715 134.04 115.173 134.04V142.746C111.244 142.746 107.383 143.781 103.98 145.745C100.577 147.71 97.7504 150.536 95.7855 153.94L88.2458 149.587Z" fill="#5D9286" stroke="white" stroke-width="0.586667"/>
<path d="M115.173 196.227C106.927 196.227 99.0182 192.951 93.1871 187.12L99.3433 180.964C103.542 185.162 109.236 187.521 115.173 187.521V196.227Z" fill="#6AD782" fill-opacity="0.32" stroke="white" stroke-width="0.586667"/>
<rect x="188.827" y="161.633" width="24" height="7" rx="3.5" fill="#31524B"/>
<path d="M200.827 134.04C209.073 134.04 216.982 137.316 222.813 143.147C228.644 148.978 231.92 156.887 231.92 165.133C231.92 173.38 228.644 181.289 222.813 187.12C216.982 192.951 209.073 196.227 200.827 196.227V187.521C206.764 187.521 212.458 185.162 216.657 180.964C220.855 176.765 223.214 171.071 223.214 165.133C223.214 159.196 220.855 153.502 216.657 149.303C212.458 145.105 206.764 142.746 200.827 142.746V134.04Z" fill="#1F7148" stroke="white" stroke-width="0.586667"/>
<path d="M178.84 187.12C176.919 185.198 175.258 183.033 173.899 180.68L181.439 176.327C182.417 178.021 183.613 179.58 184.997 180.964L178.84 187.12Z" fill="#0C3D25" stroke="white" stroke-width="0.586667"/>
<path d="M173.899 180.68C171.17 175.953 169.733 170.591 169.733 165.133C169.733 159.675 171.17 154.313 173.899 149.587L181.439 153.94C179.474 157.343 178.44 161.204 178.44 165.133C178.44 169.063 179.474 172.924 181.439 176.327L173.899 180.68Z" fill="#5D996A" stroke="white" stroke-width="0.586667"/>
<path d="M173.899 149.587C176.628 144.86 180.553 140.935 185.28 138.206C190.007 135.477 195.369 134.04 200.827 134.04V142.746C196.897 142.746 193.036 143.781 189.633 145.745C186.23 147.71 183.404 150.536 181.439 153.94L173.899 149.587Z" fill="#5D9286" stroke="white" stroke-width="0.586667"/>
<path d="M200.827 196.227C192.58 196.227 184.672 192.951 178.84 187.12L184.997 180.964C189.195 185.162 194.889 187.521 200.827 187.521V196.227Z" fill="#6AD782" fill-opacity="0.32" stroke="white" stroke-width="0.586667"/>
<mask id="path-20-inside-1_165_991" fill="white">
<path d="M49 80C49 77.7909 50.7909 76 53 76H108C110.209 76 112 77.7909 112 80V88H49V80Z"/>
</mask>
<path d="M49 80C49 77.7909 50.7909 76 53 76H108C110.209 76 112 77.7909 112 80V88H49V80Z" fill="#F5FAF9"/>
<path d="M48 80C48 77.2386 50.2386 75 53 75H108C110.761 75 113 77.2386 113 80H111C111 78.3431 109.657 77 108 77H53C51.3431 77 50 78.3431 50 80H48ZM112 88H49H112ZM48 88V80C48 77.2386 50.2386 75 53 75V77C51.3431 77 50 78.3431 50 80V88H48ZM108 75C110.761 75 113 77.2386 113 80V88H111V80C111 78.3431 109.657 77 108 77V75Z" fill="#1F7148" fill-opacity="0.22" mask="url(#path-20-inside-1_165_991)"/>
<path d="M55.68 80.2404C55.9262 80.0925 56.2339 80.0925 56.4801 80.2404C56.6219 80.3256 56.7871 80.3633 56.9517 80.348C57.2377 80.3216 57.515 80.4551 57.6726 80.6952C57.7633 80.8334 57.8958 80.9391 58.0508 80.9968C58.32 81.097 58.5118 81.3376 58.5497 81.6223C58.5714 81.7863 58.645 81.9389 58.7595 82.0582C58.9586 82.2653 59.027 82.5653 58.9376 82.8382C58.8861 82.9953 58.8861 83.1648 58.9376 83.322C59.027 83.5949 58.9586 83.8949 58.7595 84.102C58.645 84.2212 58.5714 84.3739 58.5497 84.5378C58.5118 84.8225 58.32 85.0631 58.0508 85.1634C57.8958 85.2211 57.7633 85.3267 57.6726 85.465C57.515 85.7051 57.2377 85.8386 56.9517 85.8121C56.7871 85.7969 56.6219 85.8346 56.4801 85.9198C56.2339 86.0677 55.9262 86.0677 55.68 85.9198C55.5383 85.8346 55.3731 85.7969 55.2084 85.8121C54.9224 85.8386 54.6452 85.7051 54.4876 85.465C54.3968 85.3267 54.2643 85.2211 54.1093 85.1634C53.8402 85.0631 53.6483 84.8225 53.6105 84.5378C53.5887 84.3739 53.5152 84.2212 53.4006 84.102C53.2016 83.8949 53.1331 83.5949 53.2226 83.322C53.2741 83.1648 53.2741 82.9953 53.2226 82.8382C53.1331 82.5653 53.2016 82.2653 53.4006 82.0582C53.5152 81.9389 53.5887 81.7863 53.6105 81.6223C53.6483 81.3376 53.8402 81.097 54.1093 80.9968C54.2643 80.9391 54.3968 80.8334 54.4876 80.6952C54.6452 80.4551 54.9224 80.3216 55.2084 80.348C55.3731 80.3633 55.5383 80.3256 55.68 80.2404Z" fill="#5D9286"/>
<rect x="62" y="82" width="33" height="2" rx="1" fill="#5D9286"/>
<rect x="102" y="81" width="4" height="4" rx="2" fill="#CACACA"/>
<defs>
<filter id="filter0_f_165_991" x="8.1" y="232.1" width="298.8" height="78.8" filterUnits="userSpaceOnUse" color-interpolation-filters="sRGB">
<feFlood flood-opacity="0" result="BackgroundImageFix"/>
<feBlend mode="normal" in="SourceGraphic" in2="BackgroundImageFix" result="shape"/>
<feGaussianBlur stdDeviation="17.95" result="effect1_foregroundBlur_165_991"/>
</filter>
</defs>
</svg>
