<svg width="37" height="43" viewBox="0 0 37 43" fill="none" xmlns="http://www.w3.org/2000/svg">
<path d="M28.0969 5.40326C28.4148 6.35677 28.6055 7.50099 28.6055 8.83591C28.6055 14.4934 25.4271 17.9261 19.0703 19.0703C16.6547 20.151 13.2221 24.2193 13.2221 26.1263C13.2221 26.762 13.6035 27.1434 14.0485 27.1434C15.5105 27.1434 23.6472 18.5618 29.3047 18.5618C32.6102 18.5618 34.5173 21.4859 34.5173 26.1263C34.5173 35.7886 25.4271 42.8446 12.9042 42.8446C6.61104 42.8446 3.24195 40.7469 3.24195 36.7421C3.24195 34.3901 4.51331 32.2288 6.67461 30.4489C5.84823 30.5761 4.76758 30.5761 3.68693 30.5761C1.01708 30.5761 0 29.8768 0 27.9698C0 24.41 4.06833 21.168 10.4887 19.4517C7.75526 18.8796 3.87763 17.2904 3.87763 12.0143C3.87763 5.40326 10.4887 0.699247 19.0067 0.699247C22.2487 0.699247 24.6643 1.39849 26.2535 2.73341C27.3977 0.889949 29.114 0 31.1482 0C34.3266 0 36.2336 1.84346 36.2336 4.95828C36.2336 7.69169 34.708 9.47159 32.7374 9.47159C30.7032 9.47159 29.4318 7.50099 29.4318 5.02185C29.4318 4.51331 29.4954 3.9412 29.6861 3.62336C28.8597 3.9412 28.3512 4.57688 28.0969 5.40326ZM11.0608 30.1311C10.8701 30.3854 10.7429 30.7668 10.7429 31.2117C10.7429 33.7544 17.0361 36.8057 22.058 36.8057C24.6643 36.8057 25.6813 35.9793 25.6813 33.818C25.6813 30.8939 23.6472 29.4954 19.3246 29.4954C16.3369 29.4954 13.8578 29.8768 11.0608 30.1311ZM14.3027 3.43266C13.6035 3.43266 13.2221 3.87763 13.2221 4.70401C13.2221 9.15375 16.3369 15.9555 18.3711 15.9555C18.8796 15.9555 19.4517 15.447 19.4517 14.7477C19.4517 9.72586 16.4005 3.43266 14.3027 3.43266Z" fill="#44372E"/>
</svg>
