<svg width="111" height="47" viewBox="0 0 111 47" fill="none" xmlns="http://www.w3.org/2000/svg">
<path d="M25.3409 25.9565L25.858 13.3507H25.2762L16.8724 36.5583L8.46851 13.3507H7.8867L8.40386 25.9565V46.0611H0V0.938829H11.4422L17.0017 16.1304H17.5188L23.0783 0.938829H33.7447V46.0611H25.3409V25.9565Z" fill="white"/>
<path d="M60.4826 8.89017V46.0611H50.7858V8.89017H37.7921V0.938829H73.4762V8.89017H60.4826Z" fill="white"/>
<path d="M93.6849 46.8368C89.8924 46.8368 86.5955 46.2119 83.7942 44.9621C80.9929 43.7123 78.7303 42.01 77.0064 39.8552L82.6306 33.6492C84.2682 35.4593 86.0567 36.7953 87.9961 37.6572C89.9786 38.5192 91.9826 38.9501 94.0081 38.9501C96.3353 38.9501 98.1023 38.433 99.309 37.3987C100.516 36.3643 101.119 34.8775 101.119 32.9381C101.119 31.3436 100.645 30.1369 99.6969 29.318C98.7918 28.4992 97.2403 27.9174 95.0424 27.5726L90.3233 26.7969C86.2722 26.1073 83.3417 24.6205 81.5316 22.3364C79.7215 20.0091 78.8165 17.1863 78.8165 13.8678C78.8165 9.51507 80.2387 6.15353 83.0831 3.78321C85.9275 1.36979 89.9139 0.163086 95.0424 0.163086C98.5332 0.163086 101.572 0.701794 104.157 1.77921C106.743 2.85663 108.833 4.32192 110.428 6.17508L104.933 12.3164C103.726 10.9804 102.304 9.94604 100.667 9.2134C99.0289 8.43766 97.1757 8.04979 95.1071 8.04979C90.7543 8.04979 88.5779 9.8383 88.5779 13.4153C88.5779 14.9668 89.052 16.1304 90.0001 16.9062C90.9913 17.6819 92.5859 18.2637 94.7838 18.6516L99.5029 19.492C103.166 20.1384 105.989 21.5175 107.971 23.6293C109.954 25.741 110.945 28.5854 110.945 32.1624C110.945 34.2741 110.579 36.235 109.846 38.0451C109.114 39.8121 108.015 41.3636 106.549 42.6996C105.084 43.9925 103.274 45.0052 101.119 45.7379C99.0073 46.4705 96.5293 46.8368 93.6849 46.8368Z" fill="white"/>
</svg>
