<svg width="96" height="96" viewBox="0 0 96 96" fill="none" xmlns="http://www.w3.org/2000/svg">
  <circle cx="48" cy="48" r="40" fill="#A7F3D0"/>
  <ellipse cx="60" cy="55" rx="10" ry="6" fill="#14532D"/>
  <ellipse cx="36" cy="55" rx="10" ry="6" fill="#14532D"/>
  <ellipse cx="60" cy="55" rx="6" ry="3" fill="#fff"/>
  <ellipse cx="36" cy="55" rx="6" ry="3" fill="#fff"/>
  <ellipse cx="60" cy="55" rx="2" ry="1" fill="#14532D"/>
  <ellipse cx="36" cy="55" rx="2" ry="1" fill="#14532D"/>
  <ellipse cx="48" cy="40" rx="16" ry="14" fill="#fff"/>
  <ellipse cx="42" cy="44" rx="2.5" ry="3.5" fill="#14532D"/>
  <ellipse cx="54" cy="44" rx="2.5" ry="3.5" fill="#14532D"/>
  <path d="M44 52 Q48 56 52 52" stroke="#14532D" stroke-width="2" fill="none"/>
  <path d="M56 38 Q58 36 60 38" stroke="#14532D" stroke-width="1.5" fill="none"/>
  <path d="M36 38 Q38 36 40 38" stroke="#14532D" stroke-width="1.5" fill="none"/>
  <circle cx="48" cy="48" r="40" fill="#000" fill-opacity="0.08"/>
  <ellipse cx="48" cy="48" rx="40" ry="40" fill="#000" fill-opacity="0.02"/>
  <path d="M60 52 l6 6" stroke="#14532D" stroke-width="2" stroke-linecap="round"/>
  <ellipse cx="66" cy="58" rx="2" ry="2" fill="#14532D"/>
  <ellipse cx="66" cy="58" rx="1" ry="1" fill="#fff"/>
</svg>
